<?xml version="1.0" standalone="no"?>
<!DOCTYPE svg PUBLIC "-//W3C//DTD SVG 20010904//EN"
 "http://www.w3.org/TR/2001/REC-SVG-20010904/DTD/svg10.dtd">
<svg version="1.0" xmlns="http://www.w3.org/2000/svg"
 width="570.000000pt" height="570.000000pt" viewBox="0 0 570.000000 570.000000"
 preserveAspectRatio="xMidYMid meet">
<metadata>
Created by potrace 1.11, written by Peter Selinger 2001-2013
</metadata>
<g transform="translate(0.000000,570.000000) scale(0.100000,-0.100000)"
fill="#000000" stroke="none">
<path d="M100 2850 l0 -2850 1102 2 c871 2 1102 6 1106 16 2 8 -2 10 -14 5
-12 -4 -15 -3 -10 5 4 7 14 12 22 12 8 0 14 5 14 10 0 17 -17 11 -48 -15 -36
-30 -55 -34 -24 -4 12 11 20 24 17 29 -3 5 0 12 6 16 8 4 9 3 5 -4 -15 -25 14
-11 30 14 14 21 15 27 4 34 -7 4 -20 6 -28 2 -10 -3 -13 -1 -8 6 4 6 22 9 42
6 22 -2 33 0 29 6 -3 5 -17 10 -31 10 -13 0 -24 5 -24 10 0 6 9 10 19 10 30 0
49 45 27 62 -6 4 -4 13 3 22 11 13 11 16 -2 16 -9 0 -19 5 -22 10 -4 6 -3 10
2 9 20 -4 34 2 28 11 -4 6 -16 8 -28 5 -21 -6 -22 -6 -3 9 11 9 25 16 32 16 6
0 14 9 17 20 3 11 1 20 -3 20 -12 0 -6 25 10 44 10 13 10 20 2 28 -14 14 -16
32 -3 23 5 -3 12 -1 16 5 3 5 2 10 -3 10 -15 0 -13 78 3 93 17 18 10 27 -24
28 -21 1 -19 3 12 11 38 10 50 28 20 28 -17 1 -17 1 0 14 16 13 16 14 -5 30
-16 12 -18 16 -5 12 23 -7 22 3 -5 33 -13 14 -15 19 -6 12 15 -11 20 -10 33 3
15 15 15 16 0 16 -11 0 5 19 39 47 37 31 52 50 44 54 -9 6 -7 10 5 15 16 6 16
7 1 18 -15 11 -15 14 -1 28 9 8 17 24 19 34 2 10 9 25 16 33 10 11 10 16 -5
27 -13 9 -14 13 -4 14 17 0 9 43 -31 169 -25 77 -146 381 -202 506 -15 33 -20
27 -30 -36 -6 -35 -62 -126 -72 -116 -3 3 6 21 20 41 38 57 51 103 36 131 -11
21 -15 22 -27 9 -17 -16 -33 -18 -33 -4 0 6 5 10 12 10 6 0 8 3 5 6 -4 4 -13
1 -22 -6 -13 -11 -14 -10 -9 4 6 16 -11 23 -20 7 -3 -4 1 -46 9 -92 14 -79 20
-178 11 -168 -3 3 -8 27 -11 54 -10 83 -25 158 -31 164 -4 3 -4 -13 0 -37 4
-29 3 -41 -4 -37 -5 3 -10 15 -10 26 0 20 -1 20 -31 -2 l-32 -22 7 -141 c6
-138 -2 -252 -26 -364 -6 -29 -15 -55 -19 -58 -9 -5 42 -158 96 -288 48 -116
84 -256 66 -256 -4 0 -13 28 -19 62 -6 35 -41 140 -77 233 -80 205 -132 384
-141 484 -7 74 -16 77 -28 9 -4 -21 -11 -38 -16 -38 -4 0 -2 26 6 58 9 31 17
93 20 137 5 76 4 79 -11 55 -12 -18 -15 -20 -10 -5 15 47 55 240 54 261 -1 34
-16 -14 -30 -96 -6 -41 -16 -79 -21 -85 -12 -14 -10 9 12 135 12 62 19 114 17
116 -4 5 -94 -305 -119 -411 -43 -183 -34 -426 26 -680 21 -92 24 -116 11
-103 -10 10 -64 296 -75 398 -19 170 1 327 71 569 21 77 37 147 33 157 -4 14
-3 15 4 6 6 -10 9 -1 9 27 0 23 -1 40 -2 39 -2 -2 -24 -61 -50 -133 -108 -300
-129 -453 -101 -735 16 -158 41 -361 52 -425 3 -21 2 -25 -4 -15 -14 21 -70
448 -73 550 -1 25 -6 -4 -10 -65 -9 -120 -30 -253 -48 -299 -18 -46 -22 -25
-6 34 26 103 37 195 44 390 4 107 6 197 5 198 -2 2 -10 -11 -19 -30 -40 -79
-111 -198 -118 -198 -5 0 5 24 23 52 59 99 130 251 130 278 0 15 7 49 15 75
26 87 10 58 -40 -73 -68 -178 -88 -227 -92 -216 -5 14 126 343 172 433 19 40
33 76 30 80 -2 5 2 26 11 46 8 20 13 39 11 41 -5 5 -47 -90 -47 -106 0 -37
-94 -219 -107 -206 -3 2 4 18 16 34 24 34 83 163 78 169 -5 5 -117 -203 -162
-301 -54 -115 -81 -237 -99 -441 -25 -276 -26 -289 -31 -294 -7 -6 -6 19 5
170 32 416 49 474 239 818 97 176 133 251 119 251 -6 0 -49 -65 -146 -220
-328 -524 -383 -606 -435 -642 -27 -19 -25 -15 13 28 25 27 60 69 77 94 58 85
254 403 250 407 -2 2 -26 -25 -53 -59 -93 -119 -276 -333 -287 -337 -7 -2 7
18 31 45 70 80 315 386 346 431 16 24 33 40 39 36 6 -4 7 -1 2 6 -4 7 1 22 13
34 34 38 132 179 132 191 0 6 -10 0 -21 -14 -17 -21 -20 -21 -14 -5 5 16 0 14
-25 -10 -38 -36 -55 -67 -64 -117 -9 -47 -28 -62 -21 -16 4 26 3 29 -4 13 -5
-11 -10 -14 -10 -7 -2 24 -20 2 -70 -84 -28 -47 -77 -117 -109 -157 -32 -40
-67 -85 -77 -100 -10 -15 -20 -25 -23 -23 -7 7 18 43 95 139 36 45 77 105 90
132 13 28 38 73 55 100 17 28 31 55 32 61 1 6 29 41 61 78 33 37 61 73 63 79
2 8 1 9 -5 1 -4 -6 -56 -56 -114 -111 -118 -111 -238 -204 -295 -228 -63 -26
-62 -16 1 15 67 33 209 139 211 158 1 7 2 16 3 20 0 5 18 28 39 53 42 50 40
49 -120 -69 -108 -80 -214 -142 -268 -156 -14 -4 3 7 37 23 34 16 83 44 110
62 82 55 348 256 362 273 24 29 2 30 -28 2 -16 -16 -34 -25 -41 -21 -6 4 -53
-35 -114 -94 -56 -56 -106 -101 -111 -101 -13 0 127 140 207 208 39 32 68 64
68 74 0 15 -3 17 -19 8 -32 -16 -38 -11 -11 10 20 15 23 21 13 31 -7 7 -13 26
-13 41 0 20 -13 43 -42 75 l-43 46 1 77 c2 72 5 85 48 165 25 49 46 94 46 101
0 8 6 14 14 14 8 0 23 15 35 33 11 17 30 45 40 61 11 16 22 54 26 85 4 32 10
63 15 71 4 7 4 24 -1 37 -5 14 -5 22 0 19 12 -8 22 19 28 76 l5 47 -54 30
c-29 17 -48 31 -43 31 6 0 30 -11 54 -25 51 -29 51 -29 51 -10 0 8 -14 22 -32
31 -47 24 -131 20 -219 -11 -41 -15 -83 -29 -94 -31 l-20 -5 20 10 c129 60
117 56 210 69 33 5 52 10 42 11 -29 2 -129 32 -124 37 5 5 178 -39 224 -57 30
-11 41 -4 49 32 9 42 11 99 3 94 -7 -5 -58 65 -160 215 -20 30 -40 71 -43 90
l-7 35 17 -30 c20 -36 15 -31 41 -39 22 -7 22 -5 22 72 -1 87 9 152 22 152 5
0 5 -15 1 -32 -4 -18 -7 -71 -7 -117 0 -78 2 -85 25 -100 14 -9 44 -33 68 -55
23 -21 42 -35 42 -31 0 5 11 -2 25 -15 13 -12 22 -27 19 -31 -3 -5 0 -17 6
-26 10 -16 11 -15 7 5 -3 12 -1 22 4 22 5 0 9 11 9 25 0 14 4 25 10 25 17 0
-2 33 -73 129 -65 87 -138 222 -137 253 1 7 21 -29 45 -80 24 -51 72 -128 106
-170 34 -42 68 -92 77 -109 17 -37 32 -43 32 -14 0 16 -20 68 -74 194 -9 20
-14 37 -10 37 7 0 84 -164 84 -178 0 -6 4 -13 9 -16 13 -8 -6 79 -25 116 -27
54 -65 99 -76 92 -7 -4 -8 -2 -4 4 4 7 4 12 -1 12 -4 1 -24 15 -43 31 l-35 31
31 -15 c67 -34 136 -122 168 -216 10 -26 14 -31 19 -18 3 9 2 17 -4 17 -7 0
-8 14 -4 38 5 30 0 52 -19 97 -49 109 -106 177 -256 305 -14 12 -4 8 21 -9 70
-45 193 -182 229 -254 l31 -62 -6 45 c-8 57 -29 131 -71 250 -18 52 -31 96
-29 98 5 5 29 -53 51 -123 10 -30 23 -55 29 -55 6 0 27 -14 48 -31 l37 -30 0
43 c0 48 -49 272 -110 505 -39 146 -46 182 -35 171 7 -6 65 -228 105 -397 16
-68 31 -125 33 -128 3 -2 6 37 6 88 1 110 19 268 33 289 6 10 8 3 4 -25 -32
-233 -32 -525 1 -555 18 -17 105 -53 133 -55 9 0 20 -4 27 -8 7 -5 9 0 6 13
-3 11 -2 31 1 46 5 19 10 23 19 15 10 -7 13 -5 12 12 0 12 -4 28 -8 34 -6 9
-3 11 10 6 16 -6 16 -4 -2 18 -20 23 -20 23 0 9 11 -8 27 -24 37 -35 16 -19
16 -19 5 15 -7 19 -16 42 -22 50 -7 13 -6 13 8 2 9 -8 21 -11 27 -7 6 4 18 -1
26 -11 9 -11 12 -12 8 -4 -4 8 -14 23 -22 33 -13 15 -13 17 -1 17 8 0 21 -6
28 -12 10 -11 10 -8 2 15 -15 39 -15 39 24 17 l34 -19 -10 26 c-10 26 -9 26 9
10 24 -22 33 -22 26 1 -5 14 -3 14 10 -2 9 -11 16 -16 16 -12 0 5 7 3 15 -4
19 -16 19 -1 0 24 -23 30 -18 38 12 19 l27 -18 -16 24 c-17 24 -16 25 8 38 15
7 31 10 37 6 6 -4 8 0 4 10 -3 10 -2 17 2 17 5 0 7 9 4 20 -4 15 0 20 16 20
21 0 21 2 7 21 -8 12 -12 27 -9 35 3 8 -2 17 -11 20 -23 9 -20 27 4 19 26 -8
25 -1 -2 26 -18 17 -19 21 -5 16 9 -4 17 -2 17 3 0 6 -4 10 -10 10 -5 0 -10 6
-10 13 0 7 -11 25 -25 40 -19 20 -22 27 -10 27 20 0 19 12 -5 38 -24 26 -25
33 -4 25 15 -5 15 -3 -1 20 -9 15 -22 24 -28 20 -5 -3 -7 -1 -4 5 10 15 -3 42
-19 42 -7 0 -11 6 -8 14 3 9 12 12 22 8 15 -5 16 -4 2 14 -8 10 -19 22 -25 26
-6 5 -4 8 4 8 8 0 23 -7 33 -17 10 -9 18 -11 18 -5 0 6 -13 19 -30 28 -21 13
-26 20 -17 26 9 6 5 14 -13 29 -21 17 -22 20 -5 15 20 -6 20 -6 1 9 -11 8 -20
23 -21 32 0 10 -5 25 -9 33 -7 12 -6 13 5 3 7 -7 16 -13 19 -13 11 0 9 43 -2
64 -14 26 -17 43 -19 126 -1 72 10 109 45 151 13 16 27 34 30 41 5 10 7 10 12
1 3 -7 17 -13 32 -13 32 0 111 -37 134 -62 9 -11 20 -18 23 -16 7 3 109 -91
260 -241 62 -61 95 -103 120 -154 19 -38 35 -76 35 -83 0 -7 4 -16 10 -19 6
-3 7 1 4 12 -3 11 5 6 20 -12 14 -16 29 -38 32 -47 3 -10 11 -18 19 -18 7 0
13 -6 12 -12 -2 -51 7 -80 33 -113 27 -34 29 -42 24 -93 -6 -65 -14 -84 -25
-56 -7 18 -8 17 -8 -3 -1 -12 -10 -27 -21 -33 -11 -6 -18 -15 -16 -19 10 -16
9 -112 -1 -122 -15 -15 -63 68 -64 112 0 28 -2 30 -9 14 -9 -22 -2 -75 11 -90
5 -5 9 -20 9 -33 0 -15 4 -21 12 -16 7 5 8 3 3 -5 -4 -8 5 -30 22 -54 23 -32
29 -52 28 -84 -1 -36 1 -40 14 -30 12 10 14 9 8 -5 -5 -15 -1 -17 24 -14 16 2
38 11 48 20 15 14 20 14 24 4 4 -11 7 -10 15 1 7 10 14 11 28 3 17 -10 15 -14
-25 -52 -30 -29 -50 -40 -63 -37 -14 4 -18 1 -14 -8 3 -8 1 -17 -5 -20 -5 -4
-7 -10 -4 -15 3 -5 1 -20 -5 -34 l-10 -26 28 17 27 18 -24 -34 c-22 -30 -28
-33 -62 -28 -22 3 -39 1 -39 -4 0 -4 -7 -6 -15 -3 -12 5 -10 10 8 26 l22 19
-23 -11 c-28 -14 -40 -6 -22 15 19 23 3 18 -20 -7 -11 -12 -20 -18 -20 -13 0
5 -6 0 -14 -11 -8 -10 -12 -29 -9 -41 3 -13 1 -23 -6 -23 -6 0 -8 6 -5 14 5
13 -24 31 -34 21 -3 -3 0 -5 6 -5 7 0 12 -11 12 -24 0 -13 4 -26 10 -28 5 -1
-1 -16 -15 -33 l-24 -30 4 33 c4 36 -11 40 -29 6 -6 -10 -15 -22 -21 -26 -15
-11 -47 -9 -40 2 4 6 10 8 15 5 5 -3 11 -1 15 5 9 15 -18 12 -41 -5 -20 -13
-21 -13 -19 10 2 17 -1 22 -11 18 -20 -8 -17 14 4 26 9 6 13 11 9 11 -5 0 -20
-9 -35 -20 -18 -14 -28 -17 -32 -9 -6 8 -9 8 -14 0 -7 -11 -1 -13 39 -15 13
-1 21 -9 23 -23 2 -17 -2 -21 -17 -20 -14 1 -17 5 -10 13 9 11 -32 12 -99 1
-31 -5 -51 -25 -34 -36 10 -6 10 -10 -3 -21 -12 -10 -15 -10 -15 3 0 18 -27
30 -35 17 -4 -6 -14 -10 -23 -10 -15 1 -14 3 3 17 18 14 18 15 2 9 -10 -3 -21
-6 -23 -6 -2 0 -4 -7 -4 -16 0 -12 -7 -15 -25 -12 -13 3 -22 1 -19 -3 3 -5 -7
-9 -23 -10 -27 0 -28 0 -5 -10 13 -5 28 -7 33 -3 14 8 11 -1 -15 -51 -14 -25
-27 -53 -29 -63 -4 -13 -5 -11 -6 6 -1 25 -21 31 -21 6 0 -9 -10 -29 -22 -44
-13 -15 -28 -36 -35 -46 -10 -16 -12 -16 -7 -1 4 9 1 17 -5 17 -6 0 -11 -4
-11 -9 0 -5 -7 -11 -15 -15 -10 -4 -8 5 7 29 13 18 25 33 28 33 17 -1 20 4 10
22 -10 19 -11 19 -30 0 -11 -11 -25 -20 -31 -20 -5 0 -7 -4 -4 -10 3 -5 -1
-10 -10 -10 -11 0 -15 5 -11 16 3 9 2 12 -5 9 -5 -4 -7 -16 -3 -27 4 -15 3
-18 -6 -13 -10 6 -12 1 -8 -19 3 -14 1 -29 -3 -32 -5 -3 -9 3 -9 13 0 14 -2
15 -9 5 -4 -8 -10 -12 -12 -11 -2 2 -13 -3 -24 -10 -19 -11 -18 -12 5 -6 24 6
23 5 -8 -22 -38 -33 -40 -42 -8 -36 13 3 27 0 31 -6 4 -8 -1 -10 -17 -6 -17 4
-29 0 -43 -14 -22 -25 -13 -40 10 -17 26 25 41 19 17 -7 -12 -13 -19 -27 -15
-31 4 -4 -1 -4 -11 0 -16 6 -18 4 -14 -14 4 -12 3 -20 0 -18 -4 2 -16 -8 -26
-23 l-20 -26 21 18 c22 19 41 8 27 -15 -4 -7 -3 -8 4 -4 20 12 27 -42 8 -63
-9 -10 -16 -23 -16 -30 0 -7 -4 -10 -8 -7 -5 3 -8 -5 -8 -17 1 -15 -5 -22 -16
-21 -10 1 -18 -4 -18 -12 0 -9 -6 -11 -17 -7 -17 7 -17 6 -1 -11 26 -25 8 -55
-28 -48 -29 5 -29 3 -9 -53 5 -15 4 -16 -3 -6 -9 12 -13 12 -27 -2 -15 -16
-14 -17 17 -17 18 -1 47 -7 63 -16 l30 -14 -37 4 c-29 4 -37 1 -41 -15 -4 -16
-2 -17 15 -8 11 6 23 7 26 3 4 -4 1 -9 -7 -12 -7 -2 -20 -13 -29 -23 -9 -10
-19 -16 -24 -13 -15 9 -31 -8 -17 -17 12 -8 12 -10 0 -18 -8 -5 -20 -7 -26 -4
-7 2 -19 -2 -27 -10 -7 -8 -26 -13 -41 -11 -31 3 -49 -22 -27 -36 7 -4 10 -12
6 -18 -4 -6 2 -8 16 -4 16 4 19 2 13 -8 -6 -10 -4 -12 11 -6 15 6 17 5 7 -5
-7 -7 -13 -27 -13 -43 l-1 -31 -14 25 c-11 20 -14 21 -15 7 0 -10 -5 -15 -10
-12 -6 3 -19 3 -30 0 -16 -5 -18 -10 -10 -25 6 -10 10 -29 10 -42 0 -18 2 -20
10 -8 8 13 10 13 10 -2 0 -11 15 -20 49 -28 57 -14 78 -40 31 -40 -22 0 -28 4
-24 15 4 9 0 15 -9 15 -12 0 -13 -7 -7 -34 9 -41 19 -58 29 -51 5 2 25 -5 47
-15 21 -11 33 -20 26 -20 -7 0 -12 -7 -12 -15 0 -8 -5 -15 -12 -15 -6 0 -8 -3
-4 -8 4 -4 13 -7 19 -7 13 0 86 -141 87 -167 0 -10 5 -18 11 -18 6 0 8 -9 3
-23 -10 -32 -10 -32 -43 -4 -16 13 -27 28 -24 31 4 3 1 6 -5 6 -7 0 -12 -5
-12 -12 0 -6 -2 -9 -5 -6 -10 10 8 39 21 34 16 -6 19 10 4 19 -5 3 -10 11 -10
17 0 6 7 5 16 -3 15 -12 16 -11 9 11 -10 34 -55 118 -55 103 0 -7 -9 -9 -22
-5 -17 4 -20 2 -15 -12 4 -10 7 -27 7 -37 0 -11 4 -18 8 -15 4 2 6 -11 4 -30
-3 -26 1 -39 14 -50 11 -9 13 -12 6 -9 -11 6 -10 1 1 -21 21 -39 71 -104 64
-81 -9 23 5 22 26 -4 22 -25 36 -17 16 8 -12 15 -11 15 14 -1 15 -10 27 -14
27 -8 0 6 9 9 20 7 23 -4 25 8 9 53 -7 22 -15 29 -27 25 -13 -4 -14 -3 -4 5
12 8 11 15 -3 43 -29 59 -99 159 -111 159 -8 0 -11 14 -7 43 4 38 3 40 -11 24
-14 -18 -15 -18 -26 2 -9 18 -8 21 10 21 11 0 20 5 20 11 0 5 -4 8 -9 5 -5 -4
-7 3 -4 13 4 17 8 18 24 8 11 -7 17 -19 14 -28 -3 -10 3 -20 17 -27 17 -8 18
-11 7 -11 -26 -1 -31 -40 -8 -65 11 -11 41 -54 66 -93 25 -40 49 -73 55 -73 5
0 6 -5 3 -10 -4 -6 -2 -16 3 -23 5 -7 12 -29 16 -50 4 -21 11 -35 15 -32 5 3
12 -2 15 -11 3 -8 10 -12 16 -9 7 4 7 13 0 25 -10 18 -8 19 13 11 26 -10 57 1
38 13 -6 4 -11 12 -11 18 0 6 8 4 18 -5 14 -13 19 -13 29 -2 7 8 9 16 4 20 -5
3 -12 -1 -14 -7 -4 -9 -6 -10 -6 -1 -1 19 16 24 31 9 8 -7 25 -16 38 -20 19
-5 21 -5 10 3 -8 5 -11 13 -7 17 3 4 15 1 24 -7 16 -13 17 -12 4 4 -7 9 -19
17 -27 17 -7 0 -16 5 -20 12 -5 8 -2 9 9 5 10 -3 17 -2 17 3 0 5 -8 11 -18 14
-11 4 -30 19 -43 33 -13 15 -17 22 -9 16 16 -12 111 -63 117 -63 5 0 -16 25
-47 55 -36 36 -11 31 27 -5 37 -35 40 -36 45 -13 2 12 16 17 51 20 47 4 56 -2
37 -25 -7 -9 -7 -9 2 -2 18 15 45 12 52 -5 3 -9 18 -15 36 -15 32 0 41 14 15
24 -8 3 -15 12 -15 20 0 7 -6 16 -14 19 -24 10 -26 -5 -3 -23 12 -11 18 -22
13 -27 -5 -4 -11 -2 -13 5 -4 11 -64 44 -85 46 -5 1 -8 4 -8 9 0 4 0 12 0 18
0 7 8 6 23 -3 25 -16 61 -12 54 6 -4 9 2 11 19 8 13 -2 24 -10 24 -18 0 -7 9
-19 20 -27 13 -9 18 -20 14 -31 -8 -22 29 -22 56 1 25 21 26 39 3 52 -10 5
-15 13 -11 17 13 12 38 -17 38 -45 1 -23 2 -24 13 -10 11 14 14 14 26 2 10
-11 10 -18 2 -26 -8 -8 -11 -8 -11 2 0 7 -4 9 -10 6 -6 -3 -10 -11 -10 -16 0
-6 5 -7 10 -4 6 3 10 2 10 -2 0 -12 -37 -42 -44 -37 -3 2 -1 -2 5 -9 8 -9 17
-4 40 23 l29 35 -3 -43 c-4 -46 7 -57 17 -17 4 14 2 35 -4 46 -9 15 -8 24 1
35 10 12 14 12 26 -3 10 -13 13 -14 10 -3 -2 8 6 20 17 26 12 6 20 16 19 22
-4 18 14 14 21 -4 4 -9 9 -14 13 -11 3 4 12 2 20 -5 11 -9 9 -16 -13 -40 -33
-34 -26 -36 21 -5 25 16 34 27 31 41 -3 12 5 7 24 -15 29 -36 31 -52 3 -42
-11 4 -14 3 -9 -5 5 -8 -3 -11 -26 -8 -18 2 -41 0 -50 -5 -12 -6 -18 -6 -18 0
0 6 -13 8 -29 6 -24 -3 -29 0 -24 12 4 11 2 14 -5 9 -7 -4 -12 -19 -11 -34 0
-15 3 -22 5 -16 5 13 35 9 71 -8 18 -9 27 -8 43 7 18 16 20 17 20 1 0 -9 -6
-19 -13 -22 -18 -6 -18 -34 0 -34 17 0 12 -41 -7 -58 -9 -8 -3 -7 17 3 40 19
49 19 34 1 -9 -11 -8 -15 6 -22 10 -4 23 -8 29 -9 6 0 19 -6 28 -14 12 -10 13
-17 5 -27 -6 -7 -16 -11 -22 -9 -17 7 -30 -5 -57 -50 -20 -34 -21 -38 -4 -24
29 24 48 34 40 21 -4 -7 -3 -12 2 -12 15 0 23 -28 10 -36 -7 -4 -8 -3 -4 4 4
7 2 12 -3 12 -15 0 -14 -15 3 -29 11 -9 15 -9 18 0 2 7 9 9 16 5 13 -8 5 -36
-10 -33 -5 1 -21 -16 -35 -37 -18 -28 -21 -37 -9 -33 26 10 29 -13 5 -39 -21
-23 -22 -25 -4 -19 19 6 19 6 2 -8 -18 -15 -13 -52 5 -41 6 4 5 10 -3 15 -11
6 -10 9 4 15 9 3 17 12 17 19 0 7 7 15 15 19 8 3 13 11 10 18 -5 15 43 73 53
64 3 -4 0 -11 -8 -16 -8 -5 -11 -12 -7 -16 4 -4 13 -2 19 4 14 14 32 16 23 2
-3 -5 0 -7 8 -4 19 7 33 -14 18 -29 -8 -8 -11 -7 -11 4 -1 10 -4 9 -11 -5 -8
-13 -8 -20 -1 -25 13 -8 -61 -91 -80 -90 -10 0 -10 2 0 6 6 2 12 10 12 17 0 7
11 19 25 26 14 7 25 17 25 22 0 15 -21 8 -48 -18 -29 -27 -76 -55 -89 -53 -15
4 -43 -13 -37 -23 3 -5 11 -4 20 3 8 6 14 8 14 4 0 -4 11 0 25 9 23 15 25 15
25 0 0 -12 7 -15 27 -11 26 5 26 4 8 -9 -19 -14 -19 -14 1 -14 10 0 25 9 32
20 17 27 35 26 27 -2 -6 -18 -4 -20 11 -13 11 4 27 9 36 12 9 3 14 11 12 18
-7 18 15 30 29 16 8 -8 8 -14 -1 -23 -15 -15 -16 -32 -2 -23 5 3 10 2 10 -3 0
-6 -7 -13 -16 -16 -8 -3 -12 -2 -9 4 9 15 -7 12 -29 -5 -11 -8 -28 -13 -37
-10 -10 3 -20 1 -24 -5 -3 -5 -11 -10 -17 -10 -6 0 -5 7 3 17 25 31 -30 -9
-77 -56 -31 -31 -37 -41 -24 -41 10 0 20 4 22 9 1 4 14 12 27 16 16 5 21 4 17
-4 -4 -6 -3 -11 3 -11 5 0 13 5 16 10 4 6 11 7 17 4 5 -4 21 0 35 7 18 10 29
10 41 2 14 -9 23 -6 45 15 15 14 27 21 27 15 0 -15 -49 -53 -67 -53 -8 0 -11
5 -8 11 4 6 -2 5 -13 -2 -12 -7 -19 -15 -16 -18 2 -3 -17 -15 -43 -28 -33 -16
-41 -23 -26 -23 12 0 25 4 28 10 3 5 13 10 20 10 12 0 12 -5 2 -28 -17 -40
-35 -55 -57 -49 -11 3 -23 1 -26 -4 -5 -8 9 -13 29 -10 11 2 9 -17 -3 -24 -5
-3 -10 -1 -10 5 0 8 -6 8 -20 0 -15 -8 -18 -8 -14 3 3 8 -2 17 -11 21 -9 3
-14 2 -11 -3 3 -5 -2 -12 -11 -16 -10 -3 -19 -1 -21 4 -2 6 -12 11 -22 11 -10
0 -22 4 -25 10 -3 5 -12 10 -18 9 -8 0 -8 -2 1 -6 10 -4 9 -8 -5 -19 -10 -7
-24 -14 -31 -14 -8 0 -27 -9 -42 -20 -16 -11 -32 -20 -37 -19 -25 4 -35 -3
-15 -12 13 -5 42 -6 65 -2 23 4 45 6 50 5 4 -1 7 2 7 7 0 5 21 12 48 16 76 12
102 13 96 4 -3 -5 2 -9 11 -9 23 0 85 30 85 41 0 5 10 9 23 9 21 -1 21 -1 -5
-21 -16 -11 -28 -26 -28 -32 0 -8 3 -8 8 1 5 7 20 15 35 17 23 5 25 3 21 -22
-5 -31 -39 -62 -67 -63 -10 0 -29 -11 -43 -25 -14 -14 -29 -25 -34 -25 -16 0
-11 18 8 29 11 7 13 10 3 11 -10 0 -11 3 -2 13 12 16 5 27 -18 27 -13 0 -13
-2 -2 -9 17 -11 4 -18 -30 -16 -18 1 -25 -3 -22 -12 6 -17 20 -17 26 0 3 9 8
9 16 1 14 -13 -18 -37 -70 -52 -19 -6 -26 -11 -16 -11 10 -1 33 5 52 13 29 12
34 12 39 0 4 -10 -6 -16 -35 -20 -27 -5 -46 -15 -56 -31 -17 -26 -11 -42 9
-26 21 16 50 24 43 12 -9 -13 -56 -33 -74 -30 -7 1 -10 -2 -6 -8 3 -6 0 -11
-8 -11 -8 0 -20 -7 -27 -15 -9 -11 -9 -15 -1 -15 7 0 9 -5 6 -10 -3 -6 -15
-10 -26 -10 -12 0 -19 -7 -19 -19 0 -12 -12 -26 -27 -34 -16 -7 -27 -19 -26
-25 2 -7 -5 -12 -15 -12 -9 0 -24 -5 -32 -10 -12 -8 -11 -10 8 -10 13 0 33 11
46 25 23 25 43 34 31 15 -3 -5 -1 -10 4 -10 23 0 9 -16 -28 -33 -24 -11 -54
-16 -77 -13 -43 4 -67 -2 -58 -15 3 -5 -1 -9 -9 -9 -8 0 -17 -9 -20 -20 -6
-24 -6 -24 25 -7 14 7 23 17 21 24 -2 6 1 14 6 18 6 3 11 2 11 -3 0 -5 10 -8
23 -8 17 1 23 -5 25 -26 3 -29 -3 -34 -27 -19 -7 5 -10 14 -7 20 11 17 -3 13
-25 -8 -20 -18 -20 -19 -2 -30 16 -9 16 -10 1 -11 -9 0 -29 -5 -45 -12 -15 -6
-31 -11 -35 -10 -13 3 -9 -16 5 -21 20 -7 120 45 105 55 -7 4 -8 8 -3 8 6 0
17 -5 25 -10 13 -9 13 -10 0 -10 -13 0 -13 -1 0 -11 12 -8 11 -9 -5 -5 -14 4
-24 -1 -33 -14 -8 -14 -9 -20 -1 -20 6 0 9 -6 6 -14 -3 -8 -1 -17 6 -20 9 -3
8 -8 -3 -15 -8 -6 -11 -11 -6 -11 5 0 2 -8 -6 -17 -27 -32 -29 -41 -8 -36 11
3 20 11 20 17 0 6 9 12 20 12 17 0 17 -2 5 -16 -7 -8 -15 -19 -17 -25 -2 -5
-9 -9 -15 -9 -7 1 -13 -2 -13 -7 0 -5 -8 -9 -17 -9 -10 0 -27 -7 -37 -15 -19
-14 -19 -15 6 -15 25 0 43 -21 30 -35 -4 -4 -7 -12 -7 -17 0 -6 -6 -13 -14
-16 -8 -3 -11 0 -7 6 4 6 -2 8 -14 5 -16 -4 -18 -8 -9 -19 9 -11 7 -14 -7 -15
-18 0 -18 -1 1 -8 11 -5 23 -4 26 2 4 5 12 6 19 2 9 -5 11 -4 6 3 -7 12 23 17
68 12 10 -1 22 2 25 7 3 5 17 17 31 26 13 9 19 17 12 17 -6 0 -12 5 -12 10 0
6 16 10 35 10 45 0 45 -17 1 -35 -19 -8 -37 -19 -40 -24 -10 -15 25 -22 42 -9
13 11 14 10 3 -9 -13 -25 -31 -31 -31 -10 0 7 -7 4 -15 -7 -8 -11 -15 -14 -15
-8 0 17 -62 15 -96 -3 -16 -8 -38 -12 -49 -9 -14 5 -17 3 -10 -5 6 -6 24 -12
40 -15 17 -2 23 -1 16 1 -9 3 1 11 25 19 31 11 45 11 68 2 l29 -12 -22 -17
c-11 -9 -21 -22 -21 -27 0 -5 -10 -12 -23 -16 -25 -6 -32 -32 -12 -40 7 -2 18
0 26 5 10 6 10 9 2 9 -7 0 -13 4 -13 10 0 11 35 8 47 -4 4 -4 -1 -14 -11 -22
-12 -8 -14 -14 -7 -14 7 0 21 10 32 22 12 16 18 18 19 9 0 -11 6 -8 23 7 24
23 37 28 37 14 0 -7 -58 -45 -70 -47 -3 0 -4 -3 -3 -7 2 -5 -8 -8 -22 -8 -18
0 -25 -5 -25 -19 0 -39 66 -42 101 -5 13 14 33 30 44 36 16 8 18 8 8 -2 -6 -7
-9 -20 -6 -29 4 -12 3 -13 -5 -2 -8 11 -11 11 -18 0 -5 -8 -9 -18 -9 -24 0 -5
-15 -11 -34 -12 -19 -2 -36 -5 -39 -8 -2 -2 563 -4 1257 -5 l1261 0 0 2850 0
2850 -2750 0 -2750 0 0 -2850z m2455 2039 c11 -17 -1 -21 -15 -4 -8 9 -8 15
-2 15 6 0 14 -5 17 -11z m12 -45 c-3 -3 -12 -4 -19 -1 -8 3 -5 6 6 6 11 1 17
-2 13 -5z m592 -41 c13 -28 13 -28 -8 -9 -22 20 -27 36 -13 36 5 0 14 -12 21
-27z m55 -38 c4 -13 2 -14 -14 -5 -23 13 -26 20 -6 20 8 0 16 -7 20 -15z m100
-80 c25 -25 46 -42 46 -38 0 4 4 2 9 -6 11 -17 51 -25 51 -11 0 6 4 10 8 10 4
0 6 -16 4 -35 -3 -26 -9 -35 -23 -35 -10 0 -19 4 -19 8 0 5 -29 38 -65 74 -58
59 -73 78 -61 78 2 0 25 -20 50 -45z m132 -132 c-10 -10 -19 5 -10 18 6 11 8
11 12 0 2 -7 1 -15 -2 -18z m70 -40 c-4 -9 -9 -13 -13 -10 -3 4 -12 2 -19 -4
-19 -16 -29 9 -14 37 7 13 17 21 21 18 4 -2 11 1 16 8 10 16 17 -26 9 -49z
m19 -22 c-3 -6 -11 -11 -17 -11 -6 0 -6 6 2 15 14 17 26 13 15 -4z m78 -48 c7
-36 2 -40 -23 -18 -15 14 -23 15 -34 6 -11 -9 -15 -8 -20 5 -4 10 -1 22 5 28
9 8 10 7 6 -6 -10 -28 2 -21 13 7 8 21 13 24 29 16 10 -6 21 -23 24 -38z
m-983 -13 c8 -5 11 -10 5 -10 -5 0 -17 5 -25 10 -8 5 -10 10 -5 10 6 0 17 -5
25 -10z m1090 -117 c0 -20 -28 -15 -50 7 -22 22 -50 26 -68 8 -15 -15 -24 -6
-16 16 6 15 27 20 66 17 9 -1 19 3 23 9 8 13 45 -35 45 -57z m-1806 -6 c4 -19
3 -26 -4 -22 -5 3 -10 18 -10 32 0 32 5 28 14 -10z m1862 -34 c-1 -10 10 -19
32 -25 22 -6 32 -14 32 -28 0 -25 -10 -25 -59 1 -22 11 -44 18 -48 16 -4 -3
-14 1 -20 9 -14 15 -7 21 35 34 15 5 28 9 28 9 1 1 1 -6 0 -16z m139 -128 c12
-5 22 -14 24 -20 14 -42 24 -57 43 -65 17 -6 18 -9 6 -9 -16 -1 -62 37 -69 57
-2 5 -19 19 -38 30 -31 19 -32 21 -10 19 13 -1 33 -6 44 -12z m-2152 -48 c9
-4 22 -18 27 -33 14 -35 4 -44 -11 -10 -7 14 -27 35 -46 46 -18 10 -33 25 -33
31 0 7 9 4 23 -8 12 -11 30 -23 40 -26z m2291 -86 c4 -5 -3 -7 -14 -4 -23 6
-26 13 -6 13 8 0 17 -4 20 -9z m-634 -131 c0 -5 -4 -10 -10 -10 -5 0 -10 5
-10 10 0 6 5 10 10 10 6 0 10 -4 10 -10z m117 -27 c-4 -3 -2 -12 4 -20 6 -7 9
-14 5 -14 -3 -1 -9 -2 -13 -3 -5 -1 -13 -4 -19 -8 -6 -4 -24 -12 -40 -18 -27
-10 -26 -8 13 30 23 22 45 40 49 40 4 0 4 -3 1 -7z m628 -63 c3 -5 1 -10 -4
-10 -6 0 -11 5 -11 10 0 6 2 10 4 10 3 0 8 -4 11 -10z m85 -70 c0 -5 -10 -10
-22 -10 -19 0 -20 2 -8 10 19 13 30 13 30 0z m-800 -31 c0 -6 9 -9 20 -6 13 3
20 0 20 -9 0 -8 -7 -14 -16 -14 -8 0 -12 -4 -9 -10 3 -5 1 -10 -4 -10 -6 0
-11 5 -11 10 0 6 -9 10 -20 10 -18 0 -19 3 -10 20 12 22 30 27 30 9z m-190
-29 c-6 -11 -16 -20 -22 -20 -6 0 -3 9 7 20 10 11 20 20 22 20 2 0 -1 -9 -7
-20z m180 -21 c0 -7 -25 -19 -42 -19 -7 0 -7 5 1 13 11 14 41 19 41 6z m-110
-3 c0 -2 -8 -10 -17 -17 -16 -13 -17 -12 -4 4 13 16 21 21 21 13z m-80 -31
c-13 -14 -26 -23 -28 -20 -7 7 29 45 41 45 6 0 0 -11 -13 -25z m230 21 c0 -3
-4 -8 -10 -11 -5 -3 -10 -1 -10 4 0 6 5 11 10 11 6 0 10 -2 10 -4z m-1782 -13
c-10 -2 -28 -2 -40 0 -13 2 -5 4 17 4 22 1 32 -1 23 -4z m-103 -13 c-28 -12
-37 -12 -30 0 3 6 16 10 28 9 21 0 21 -1 2 -9z m1358 -82 c-2 -5 -12 -8 -22
-8 -9 0 -22 -5 -29 -12 -16 -16 -16 -1 0 16 13 14 60 17 51 4z m77 -30 c0 -6
-9 -8 -20 -5 -11 3 -20 0 -20 -6 0 -6 -3 -8 -6 -4 -10 10 3 23 25 24 12 1 21
-3 21 -9z m26 -3 c-5 -14 -2 -14 23 0 27 14 29 13 24 -5 -3 -11 -10 -23 -16
-27 -6 -3 -7 -1 -3 5 11 19 -5 14 -21 -5 -8 -10 -11 -12 -7 -4 5 11 2 13 -14
9 -12 -4 -25 -2 -28 3 -3 5 1 9 9 9 8 0 17 7 21 15 3 8 8 15 12 15 3 0 4 -7 0
-15z m-216 -16 c0 -6 -4 -7 -10 -4 -5 3 -10 11 -10 16 0 6 5 7 10 4 6 -3 10
-11 10 -16z m330 2 c0 -5 -7 -12 -16 -15 -14 -5 -15 -4 -4 9 14 17 20 19 20 6z
m-380 -16 c-9 -11 -9 -15 -1 -15 16 0 -28 -64 -62 -90 -15 -12 -27 -19 -27
-17 0 14 32 78 37 73 8 -8 43 13 43 26 0 6 -9 3 -20 -7 -17 -15 -20 -16 -20
-3 0 9 10 23 23 31 28 20 43 21 27 2z m130 -5 c0 -5 -5 -10 -11 -10 -5 0 -7
-4 -4 -10 3 -5 1 -10 -4 -10 -15 0 -51 -32 -51 -45 0 -5 -19 -26 -42 -45 -23
-19 -39 -29 -34 -22 4 7 2 12 -4 12 -6 0 -8 5 -5 11 4 6 13 8 20 5 16 -6 48
28 52 56 4 24 23 51 31 44 2 -3 11 1 19 9 17 17 33 19 33 5z m-1081 -169 c35
-34 62 -63 60 -66 -2 -2 -58 49 -124 112 -66 64 -93 93 -60 66 33 -28 89 -79
124 -112z m1255 144 c-4 -8 -8 -15 -10 -15 -2 0 -4 7 -4 15 0 8 4 15 10 15 5
0 7 -7 4 -15z m-174 -45 c0 -5 -7 -10 -15 -10 -8 0 -15 5 -15 10 0 6 7 10 15
10 8 0 15 -4 15 -10z m-209 -79 c-11 -11 -31 -18 -50 -17 -17 0 -31 2 -31 3 0
7 54 29 75 31 24 2 24 1 6 -17z m244 -1 c-3 -5 -11 -10 -16 -10 -6 0 -7 5 -4
10 3 6 11 10 16 10 6 0 7 -4 4 -10z m-1325 -30 c0 -5 -2 -10 -4 -10 -3 0 -8 5
-11 10 -3 6 -1 10 4 10 6 0 11 -4 11 -10z m1220 7 c0 -2 -12 -14 -27 -28 l-28
-24 24 28 c23 25 31 32 31 24z m-270 -37 c0 -5 -5 -10 -11 -10 -5 0 -7 5 -4
10 3 6 8 10 11 10 2 0 4 -4 4 -10z m-27 -35 c-3 -9 -8 -14 -10 -11 -3 3 -2 9
2 15 9 16 15 13 8 -4z m1192 -37 c7 -8 0 -9 -24 -4 -18 3 -72 6 -120 6 -63 0
-82 3 -71 11 19 13 201 3 215 -13z m-1007 -38 c-7 -10 -14 -18 -15 -16 -6 6 9
36 18 36 5 0 4 -9 -3 -20z m49 -6 c-16 -14 -31 -24 -33 -21 -5 5 44 47 55 47
3 0 -7 -12 -22 -26z m-1297 12 c0 -2 -20 -11 -45 -19 -25 -9 -45 -12 -45 -8 0
4 17 12 38 18 46 13 52 14 52 9z m335 -24 c-3 -3 -11 0 -18 7 -9 10 -8 11 6 5
10 -3 15 -9 12 -12z m965 -37 c-18 -19 -36 -32 -39 -29 -6 6 54 64 66 64 4 0
-8 -16 -27 -35z m-950 15 c0 -5 -4 -10 -10 -10 -5 0 -10 5 -10 10 0 6 5 10 10
10 6 0 10 -4 10 -10z m970 -60 c0 -5 -5 -10 -11 -10 -5 0 -7 5 -4 10 3 6 8 10
11 10 2 0 4 -4 4 -10z m-330 -14 c0 -2 -7 -7 -16 -10 -8 -3 -12 -2 -9 4 6 10
25 14 25 6z m190 -6 c0 -5 -4 -10 -10 -10 -5 0 -10 5 -10 10 0 6 5 10 10 10 6
0 10 -4 10 -10z m155 -20 c3 -5 -3 -10 -14 -10 -12 0 -21 5 -21 10 0 6 6 10
14 10 8 0 18 -4 21 -10z m-89 -28 c-18 -16 -18 -16 -6 6 6 13 14 21 18 18 3
-4 -2 -14 -12 -24z m54 4 c0 -3 -4 -8 -10 -11 -5 -3 -10 -1 -10 4 0 6 5 11 10
11 6 0 10 -2 10 -4z m40 -20 c0 -2 -9 -6 -20 -9 -11 -3 -18 -1 -14 4 5 9 34
13 34 5z m40 -31 c0 -2 -10 -9 -22 -15 -22 -11 -22 -10 -4 4 21 17 26 19 26
11z m-58 -27 c-7 -7 -12 -8 -12 -2 0 6 3 14 7 17 3 4 9 5 12 2 2 -3 -1 -11 -7
-17z m-392 -13 c0 -8 -4 -15 -10 -15 -5 0 -7 7 -4 15 4 8 8 15 10 15 2 0 4 -7
4 -15z m605 -85 c-3 -5 -11 -10 -16 -10 -6 0 -7 5 -4 10 3 6 11 10 16 10 6 0
7 -4 4 -10z m287 -12 c-7 -7 -12 -8 -12 -2 0 6 3 14 7 17 3 4 9 5 12 2 2 -3
-1 -11 -7 -17z m-112 -2 c0 -2 -8 -10 -17 -17 -16 -13 -17 -12 -4 4 13 16 21
21 21 13z m-210 -30 c0 -3 -4 -8 -10 -11 -5 -3 -10 -1 -10 4 0 6 5 11 10 11 6
0 10 -2 10 -4z m250 -10 c0 -3 -4 -8 -10 -11 -5 -3 -10 -1 -10 4 0 6 5 11 10
11 6 0 10 -2 10 -4z m-40 -20 c0 -2 -7 -9 -15 -16 -13 -11 -14 -10 -9 4 5 14
24 23 24 12z m55 -15 c-8 -14 -35 -14 -35 -1 0 5 7 7 15 4 8 -4 15 -1 15 7 0
7 3 10 6 6 3 -3 3 -10 -1 -16z m-45 -15 c0 -3 -4 -8 -10 -11 -5 -3 -10 -1 -10
4 0 6 5 11 10 11 6 0 10 -2 10 -4z m-256 -25 c3 -5 -5 -11 -19 -13 -28 -6 -35
8 -7 15 9 3 18 5 19 6 1 0 4 -3 7 -8z m-719 -113 c5 -4 0 -6 -12 -6 -13 1 -19
7 -16 15 3 8 8 10 12 6 3 -4 10 -11 16 -15z m40 -28 c3 -5 2 -10 -2 -10 -5 0
-17 -14 -27 -31 -24 -41 -31 -31 -10 15 18 37 28 44 39 26z m862 -26 c-3 -3
-12 -4 -19 -1 -8 3 -5 6 6 6 11 1 17 -2 13 -5z m-887 -174 c0 -5 -4 -10 -10
-10 -5 0 -10 5 -10 10 0 6 5 10 10 10 6 0 10 -4 10 -10z m807 -36 c-3 -3 -12
-4 -19 -1 -8 3 -5 6 6 6 11 1 17 -2 13 -5z m-727 -34 c0 -5 -4 -10 -9 -10 -6
0 -13 5 -16 10 -3 6 1 10 9 10 9 0 16 -4 16 -10z m60 -16 c0 -2 -11 -4 -25 -4
-14 0 -25 4 -25 9 0 4 11 6 25 3 14 -2 25 -6 25 -8z m617 -16 c-3 -8 -6 -5 -6
6 -1 11 2 17 5 13 3 -3 4 -12 1 -19z m-38 -49 c-16 -10 -23 -4 -14 10 3 6 11
8 17 5 6 -4 5 -9 -3 -15z m46 11 c3 -5 -1 -10 -10 -10 -9 0 -13 5 -10 10 3 6
8 10 10 10 2 0 7 -4 10 -10z m-270 -30 c3 -5 1 -10 -4 -10 -6 0 -11 5 -11 10
0 6 2 10 4 10 3 0 8 -4 11 -10z m142 4 c-3 -3 -12 -4 -19 -1 -8 3 -5 6 6 6 11
1 17 -2 13 -5z m323 -8 c0 -3 -4 -8 -10 -11 -5 -3 -10 -1 -10 4 0 6 5 11 10
11 6 0 10 -2 10 -4z m-54 -31 c-18 -18 -21 -30 -6 -20 5 3 18 1 27 -5 16 -10
16 -11 1 -6 -11 3 -24 -5 -37 -22 l-19 -27 1 35 c1 21 10 42 22 52 25 20 33
15 11 -7z m-1472 -6 c-25 -28 -74 -62 -80 -56 -4 4 85 76 95 77 2 0 -4 -9 -15
-21z m1123 15 c-3 -3 -12 -4 -19 -1 -8 3 -5 6 6 6 11 1 17 -2 13 -5z m123 -24
c4 0 10 -9 13 -20 3 -12 11 -18 19 -15 7 3 19 -4 26 -15 7 -12 8 -20 2 -20 -6
0 -13 6 -16 14 -3 8 -13 12 -22 10 -18 -5 -43 36 -41 65 1 12 2 12 6 -1 2 -10
8 -18 13 -18z m325 9 c-4 -5 -1 -9 4 -9 6 0 11 -5 11 -11 0 -8 -5 -8 -15 1
-17 14 -21 45 -5 35 6 -4 8 -11 5 -16z m-290 1 c3 -5 2 -10 -4 -10 -5 0 -13 5
-16 10 -3 6 -2 10 4 10 5 0 13 -4 16 -10z m-130 -20 c8 -13 -5 -13 -25 0 -13
8 -13 10 2 10 9 0 20 -4 23 -10z m230 -29 c-4 -3 -10 1 -15 9 -6 8 -10 11 -10
7 0 -5 -5 -5 -10 -2 -6 4 -8 11 -4 16 4 6 14 3 25 -7 11 -9 17 -20 14 -23z
m37 7 c-6 -6 -15 -8 -19 -4 -4 4 -1 11 7 16 19 12 27 3 12 -12z m-826 -15 c-7
-7 -26 7 -26 19 0 6 6 6 15 -2 9 -7 13 -15 11 -17z m88 -49 c9 -3 14 -10 11
-14 -3 -5 -1 -20 5 -34 15 -39 3 -31 -20 14 -21 42 -21 44 4 34z m171 -34 l20
-25 -22 19 c-13 11 -23 24 -23 29 0 6 1 8 3 6 1 -2 11 -15 22 -29z m-20 -10
c3 -5 -3 -10 -14 -10 -11 0 -23 5 -26 10 -3 6 3 10 14 10 11 0 23 -4 26 -10z
m830 -78 c-6 -7 -34 11 -29 19 3 5 11 3 19 -4 7 -6 12 -13 10 -15z m-51 2 c13
-5 13 -8 1 -20 -19 -19 -25 -18 -25 6 0 22 1 23 24 14z m-1694 -60 c-127 -130
-484 -402 -550 -418 -14 -4 -3 5 24 20 96 51 415 303 511 403 21 22 44 41 49
41 6 0 -10 -21 -34 -46z m1740 26 c-20 -13 -33 -13 -25 0 3 6 14 10 23 10 15
0 15 -2 2 -10z m120 -10 c0 -5 -4 -10 -10 -10 -5 0 -10 5 -10 10 0 6 5 10 10
10 6 0 10 -4 10 -10z m-90 -9 c0 -5 -15 -14 -32 -20 l-33 -11 24 20 c25 21 41
26 41 11z m59 -27 c5 3 11 -1 14 -8 4 -9 -7 -22 -28 -35 -24 -14 -32 -16 -28
-5 3 7 -2 17 -11 20 -27 10 -18 25 12 18 25 -7 26 -6 12 12 -14 17 -14 18 2 6
9 -8 21 -11 27 -8z m56 -103 c-3 -6 -11 -8 -17 -5 -6 4 -5 9 3 15 16 10 23 4
14 -10z m-62 -48 c-19 -15 -43 -17 -43 -5 0 14 7 17 34 17 24 0 25 -1 9 -12z
m-42 -72 c-17 -14 -31 -32 -31 -38 0 -7 -4 -13 -10 -13 -5 0 -10 2 -10 4 0 2
-3 13 -7 23 -3 10 -3 15 1 11 7 -6 30 9 65 42 9 9 18 12 20 6 2 -5 -10 -21
-28 -35z m84 12 c-2 -7 0 -13 6 -13 6 0 7 -5 3 -12 -6 -9 -9 -9 -12 0 -2 7 -8
9 -14 6 -6 -4 -8 1 -3 15 4 12 2 21 -4 21 -6 0 -11 5 -11 10 0 6 8 5 20 -2 11
-7 18 -19 15 -25z m45 17 c0 -5 -4 -10 -10 -10 -5 0 -10 5 -10 10 0 6 5 10 10
10 6 0 10 -4 10 -10z m-2 -107 c-6 -7 -16 -13 -22 -12 -7 0 -6 2 2 6 6 2 12 9
12 14 0 6 -4 7 -10 4 -5 -3 -10 -2 -10 4 0 14 24 20 32 7 4 -6 2 -16 -4 -23z
m-58 -89 c0 -2 -7 -4 -15 -4 -8 0 -15 4 -15 10 0 5 7 7 15 4 8 -4 15 -8 15
-10z m150 -20 c0 -3 -5 -2 -11 2 -6 3 -15 0 -20 -7 -6 -10 -8 -8 -6 8 1 17 5
20 19 12 10 -5 18 -12 18 -15z m-52 -29 c-3 -3 -9 2 -12 12 -6 14 -5 15 5 6 7
-7 10 -15 7 -18z m32 -9 c0 -2 -7 -7 -16 -10 -8 -3 -12 -2 -9 4 6 10 25 14 25
6z m-216 -58 c-5 -7 -2 -9 9 -5 11 4 14 2 10 -9 -6 -16 -23 -19 -23 -3 0 5 -4
7 -10 4 -5 -3 -10 -2 -10 4 0 5 6 12 13 14 18 8 19 8 11 -5z m67 -9 c-13 -11
-26 -17 -29 -14 -7 6 29 34 43 34 6 0 -1 -9 -14 -20z m129 -9 c0 -5 -5 -10
-11 -10 -5 0 -7 5 -4 10 3 6 8 10 11 10 2 0 4 -4 4 -10z m-56 -43 c-5 -15 -64
-39 -64 -27 0 8 46 36 62 39 4 1 5 -5 2 -12z m36 -41 c-7 -14 -9 -32 -5 -43 6
-15 8 -15 13 -3 2 8 13 23 23 33 16 15 19 15 19 2 0 -8 -7 -15 -16 -15 -10 0
-14 -6 -10 -15 5 -14 -5 -19 -31 -16 -7 1 -13 -3 -13 -9 0 -5 -7 -10 -15 -10
-19 0 -19 14 0 30 9 7 13 15 11 18 -3 2 2 18 10 34 9 17 18 27 21 24 4 -3 1
-17 -7 -30z m-55 -23 c-2 -16 -4 -31 -4 -35 -1 -5 -6 -8 -12 -8 -8 0 -8 5 1
15 17 20 6 19 -28 -2 -24 -16 -23 -14 8 20 19 20 35 37 37 37 1 0 0 -12 -2
-27z m-49 -10 c-10 -10 -19 5 -10 18 6 11 8 11 12 0 2 -7 1 -15 -2 -18z m154
-158 c0 -8 -4 -15 -10 -15 -5 0 -7 7 -4 15 4 8 8 15 10 15 2 0 4 -7 4 -15z
m-135 -35 c-10 -16 26 -24 47 -11 11 7 22 10 24 8 4 -4 -61 -47 -72 -47 -2 0
-4 9 -4 20 0 11 -6 20 -12 20 -9 0 -8 4 2 10 19 12 23 12 15 0z m-965 -24 c0
-2 -9 -6 -20 -9 -11 -3 -20 -1 -20 4 0 5 9 9 20 9 11 0 20 -2 20 -4z m1030
-41 c-10 -12 -10 -18 -1 -29 10 -12 9 -14 -7 -9 -23 6 -25 34 -3 50 21 15 27
8 11 -12z m-245 -5 c-3 -5 -12 -10 -18 -10 -7 0 -6 4 3 10 19 12 23 12 15 0z
m95 6 c0 -2 -7 -7 -16 -10 -8 -3 -12 -2 -9 4 6 10 25 14 25 6z m97 -23 c-3
-16 -10 -27 -17 -25 -7 2 -16 -1 -19 -5 -22 -29 -71 -64 -81 -58 -8 5 -1 13
20 23 21 10 27 18 19 23 -7 4 -19 1 -26 -7 -15 -15 -33 -19 -33 -8 0 4 8 13
18 20 14 11 15 13 2 14 -9 0 -21 -5 -28 -12 -9 -9 -12 -8 -12 5 0 9 6 18 13
18 6 1 25 2 40 3 15 0 32 7 36 15 5 7 13 11 17 9 5 -3 18 -2 29 3 11 4 21 8
23 8 1 1 1 -11 -1 -26z m123 23 c0 -2 -9 -6 -20 -9 -11 -3 -18 -1 -14 4 5 9
34 13 34 5z m-1145 -46 c3 -5 1 -10 -4 -10 -6 0 -11 5 -11 10 0 6 2 10 4 10 3
0 8 -4 11 -10z m845 -15 c-7 -8 -20 -15 -28 -15 -13 0 -12 3 4 15 25 19 40 19
24 0z m209 -23 c-26 -18 -69 -25 -69 -12 0 17 41 37 66 32 l25 -4 -22 -16z
m-194 -2 c-3 -5 -12 -10 -18 -10 -7 0 -6 4 3 10 19 12 23 12 15 0z m-45 -15
c-11 -13 -10 -14 2 -10 8 3 20 -1 27 -9 11 -13 7 -14 -26 -11 -21 1 -40 3 -42
4 -2 1 4 10 14 21 21 23 44 28 25 5z m60 -15 c0 -5 7 -10 16 -10 8 0 12 -4 9
-10 -3 -5 -13 -10 -22 -10 -9 0 -13 3 -10 7 4 3 2 12 -4 20 -9 9 -8 13 0 13 6
0 11 -4 11 -10z m105 -10 c-3 -5 -11 -10 -16 -10 -6 0 -7 5 -4 10 3 6 11 10
16 10 6 0 7 -4 4 -10z m-40 -10 c-3 -5 -1 -10 4 -10 6 0 11 -5 11 -11 0 -8 -4
-9 -13 0 -8 6 -17 8 -20 4 -4 -3 -7 -2 -7 4 0 12 10 23 22 23 5 0 6 -4 3 -10z
m85 4 c0 -13 -31 -35 -41 -28 -9 5 -6 11 6 21 20 14 35 17 35 7z m-201 -28 c9
-11 8 -15 -5 -20 -28 -11 -39 -6 -19 10 18 13 17 14 -12 8 -17 -3 -39 -1 -50
5 -15 8 -10 10 28 11 28 0 51 -6 58 -14z m84 -14 c-2 -7 2 -12 7 -12 6 0 10 4
10 8 0 5 14 9 30 9 44 0 32 -19 -14 -22 -23 -1 -40 3 -43 11 -2 7 -12 10 -20
7 -11 -4 -14 -3 -9 6 10 15 42 9 39 -7z m-183 -18 c0 -14 -3 -14 -15 -4 -8 7
-15 14 -15 16 0 2 7 4 15 4 8 0 15 -7 15 -16z m123 4 c-8 -13 -9 -18 -12 -38
0 -5 -5 -10 -11 -10 -5 0 -7 8 -3 18 7 19 23 42 30 42 2 0 1 -6 -4 -12z m-79
-19 c-4 -8 0 -9 15 -4 11 3 21 2 21 -3 0 -14 -56 -32 -95 -32 -18 0 -37 -6
-43 -13 -9 -10 -3 -13 27 -12 22 0 45 6 53 13 12 10 15 6 15 -21 0 -17 -2 -26
-4 -19 -3 6 -9 12 -15 12 -6 0 -8 -7 -4 -15 3 -9 -3 -19 -14 -25 -11 -6 -17
-16 -14 -24 3 -7 -2 -16 -10 -19 -9 -4 -16 -11 -16 -18 0 -6 6 -9 13 -6 7 3
13 -3 13 -13 0 -10 -6 -16 -13 -13 -7 3 -13 0 -13 -6 0 -6 -7 -8 -15 -5 -10 4
-13 13 -10 24 3 10 1 21 -5 25 -5 3 -10 1 -10 -5 0 -7 -10 -21 -22 -31 l-23
-20 22 6 c30 8 54 -6 27 -16 -10 -4 -29 -8 -41 -8 -17 -1 -21 4 -18 20 2 12 9
27 16 35 8 10 8 14 0 14 -6 0 -11 -4 -11 -9 0 -5 -7 -11 -14 -14 -10 -4 -13
-1 -10 7 3 7 23 20 44 29 31 12 38 19 33 36 -5 20 -5 20 -24 -2 -10 -12 -18
-17 -19 -10 0 6 5 15 11 19 8 5 8 8 0 14 -19 11 -3 35 46 70 33 24 47 29 53
20 6 -9 12 -10 26 -1 11 6 13 11 6 11 -18 0 -4 20 14 20 9 0 12 -5 8 -11z
m196 5 c0 -19 -31 -33 -60 -28 -23 5 -30 3 -28 -7 2 -8 12 -17 23 -20 16 -5
11 -8 -21 -17 -23 -7 -58 -28 -78 -47 -47 -44 -65 -46 -26 -3 16 17 28 35 27
41 -1 5 12 16 28 25 17 10 30 24 30 32 0 9 11 16 28 18 15 2 27 -2 27 -8 0 -7
7 -5 16 4 15 16 34 21 34 10z m36 -10 c-1 -8 -8 -19 -15 -24 -22 -13 6 -22 29
-10 12 6 26 10 32 8 6 -2 -4 -11 -22 -20 -25 -12 -37 -13 -51 -5 -17 10 -17
12 2 39 23 32 28 35 25 12z m104 -8 c0 -2 -7 -7 -16 -10 -8 -3 -12 -2 -9 4 6
10 25 14 25 6z m-290 -30 c0 -2 -7 -6 -15 -10 -8 -3 -15 -1 -15 4 0 6 7 10 15
10 8 0 15 -2 15 -4z m159 -25 c2 -1 -2 -8 -9 -16 -17 -20 -34 -19 -26 2 6 14
3 14 -16 -3 -13 -10 -25 -22 -28 -25 -13 -16 -49 -27 -68 -22 -31 8 -27 16 16
34 71 31 96 37 131 30z m51 -11 c0 -5 -5 -10 -11 -10 -5 0 -7 5 -4 10 3 6 8
10 11 10 2 0 4 -4 4 -10z m31 -33 c-10 -9 -11 -8 -5 6 3 10 9 15 12 12 3 -3 0
-11 -7 -18z m-63 -2 c-11 -11 -48 -13 -48 -3 0 5 7 8 15 5 8 -4 17 -2 21 4 3
6 9 8 12 5 3 -3 3 -8 0 -11z m-68 -15 c0 -5 -8 -10 -17 -10 -15 0 -16 2 -3 10
19 12 20 12 20 0z m-95 -20 c3 -6 -4 -10 -17 -10 -13 0 -33 -7 -45 -15 -18
-13 -22 -13 -26 0 -4 8 -1 12 6 9 7 -2 21 2 32 10 23 18 41 20 50 6z m100 -20
c-23 -26 -11 -26 26 1 16 11 29 16 29 10 0 -6 -4 -11 -9 -11 -4 0 -21 -10 -36
-22 -15 -11 -41 -22 -58 -24 -29 -2 -30 -1 -13 11 10 8 25 11 34 8 10 -4 13
-2 8 6 -8 12 23 56 32 46 3 -3 -3 -14 -13 -25z m145 -14 c0 -3 -4 -8 -10 -11
-5 -3 -10 -1 -10 4 0 6 5 11 10 11 6 0 10 -2 10 -4z m-266 -13 c-5 -5 -12 -12
-16 -18 -4 -6 -8 -2 -8 8 0 9 7 17 17 17 9 0 12 -3 7 -7z m146 -7 c0 -2 -8
-10 -17 -17 -16 -13 -17 -12 -4 4 13 16 21 21 21 13z m-232 -38 c10 -10 17
-10 35 1 22 14 22 14 3 -7 -10 -12 -27 -24 -37 -27 -25 -8 -15 -25 11 -20 34
6 22 -21 -20 -49 -22 -14 -40 -22 -40 -17 0 6 8 15 18 21 14 10 13 11 -10 7
-16 -2 -28 0 -28 4 0 5 3 9 8 10 4 0 17 2 29 3 12 1 20 -1 17 -6 -3 -4 -1 -8
5 -8 12 0 25 20 14 21 -38 6 -61 5 -76 -3 -34 -18 -32 3 3 34 36 31 25 29 -23
-5 -16 -10 -31 -16 -34 -13 -4 3 -1 6 5 6 7 0 12 6 12 13 0 6 17 19 38 29 46
20 55 21 70 6z m296 -5 c-8 -10 -24 -29 -35 -43 -15 -20 -18 -21 -12 -5 3 11
11 23 17 27 6 4 8 10 4 13 -3 3 -13 -1 -21 -10 -22 -21 -29 -19 -15 5 8 13 20
19 30 16 10 -2 21 0 24 5 3 5 9 9 15 9 5 0 2 -8 -7 -17z m35 -22 c-13 -11 -26
-18 -28 -15 -2 2 7 12 20 23 13 11 26 18 28 15 2 -2 -7 -12 -20 -23z m-129 11
c0 -5 -12 -14 -27 -21 -28 -13 -28 -13 -9 8 20 22 36 27 36 13z m205 -12 c-3
-5 -12 -10 -18 -10 -7 0 -6 4 3 10 19 12 23 12 15 0z m-97 -61 c3 -10 1 -11
-5 -1 -7 9 -14 7 -31 -8 -25 -24 -29 -24 -29 -5 0 8 4 12 8 10 3 -3 12 2 19
10 15 18 32 15 38 -6z m-400 2 c9 -5 3 -8 -17 -9 -17 0 -31 4 -31 9 0 11 30
12 48 0z m-40 -17 c26 -7 29 -24 5 -25 -14 0 -12 -3 5 -10 27 -10 20 -29 -11
-30 -12 0 -16 -3 -9 -6 13 -5 7 -23 -8 -23 -14 0 -21 32 -9 46 9 11 8 14 -4
14 -19 0 -30 27 -14 34 17 6 19 6 45 0z m162 -4 c0 -5 -4 -10 -10 -10 -5 0
-10 5 -10 10 0 6 5 10 10 10 6 0 10 -4 10 -10z m68 -22 c-13 -18 -24 -35 -25
-37 -1 -2 -10 -1 -19 3 -14 5 -10 12 22 36 21 16 40 30 42 30 1 0 -8 -15 -20
-32z m126 17 c-4 -8 -11 -15 -16 -15 -6 0 -5 6 2 15 7 8 14 15 16 15 2 0 1 -7
-2 -15z m-174 -15 c0 -5 -5 -10 -11 -10 -5 0 -7 5 -4 10 3 6 8 10 11 10 2 0 4
-4 4 -10z m259 -14 c-14 -6 -34 -17 -43 -25 -21 -17 -33 -7 -15 12 17 16 34
23 63 24 18 1 17 -1 -5 -11z m51 -36 c0 -5 -5 -10 -11 -10 -5 0 -7 5 -4 10 3
6 8 10 11 10 2 0 4 -4 4 -10z m-530 -10 c0 -5 -7 -10 -16 -10 -8 0 -12 5 -9
10 3 6 10 10 16 10 5 0 9 -4 9 -10z m200 -6 c0 -14 -3 -14 -15 -4 -9 7 -15 8
-15 2 0 -5 -7 -12 -15 -16 -19 -7 -19 -1 1 18 20 21 44 20 44 0z m50 -5 c0 -5
-4 -9 -8 -9 -5 0 -9 7 -9 15 0 8 4 12 9 9 4 -3 8 -9 8 -15z m-930 -3 c0 -2 -9
-6 -20 -9 -11 -3 -18 -1 -14 4 5 9 34 13 34 5z m880 -24 c0 -5 9 -18 20 -30
12 -12 18 -22 15 -22 -11 0 -16 -1 -56 -15 -48 -17 -52 -18 -45 -6 3 4 19 11
35 14 15 3 31 13 34 21 9 23 -19 20 -54 -5 -21 -15 -28 -26 -24 -40 4 -13 2
-19 -9 -19 -9 0 -16 9 -16 20 0 11 -4 20 -9 20 -5 0 -7 9 -4 20 3 11 9 20 14
20 5 0 6 -7 3 -15 -4 -8 -1 -15 4 -15 10 0 20 9 50 45 13 16 42 21 42 7z m100
4 c0 -2 -7 -9 -15 -16 -13 -11 -14 -10 -9 4 5 14 24 23 24 12z m350 -32 c0 -8
-5 -12 -10 -9 -6 4 -8 11 -5 16 9 14 15 11 15 -7z m-380 -17 c0 -2 -10 -12
-21 -23 -22 -19 -22 -19 -8 4 12 19 29 30 29 19z m355 -7 c-3 -5 -10 -10 -16
-10 -5 0 -9 5 -9 10 0 6 7 10 16 10 8 0 12 -4 9 -10z m20 -20 c-3 -5 -13 -10
-21 -10 -8 0 -12 5 -9 10 3 6 13 10 21 10 8 0 12 -4 9 -10z m-563 -15 c0 -5
-5 -11 -11 -13 -6 -2 -11 4 -11 13 0 9 5 15 11 13 6 -2 11 -8 11 -13z m128
-10 c-10 -12 -10 -15 0 -15 8 0 11 -2 9 -4 -2 -2 -7 -4 -10 -3 -3 1 -27 -15
-53 -36 -25 -22 -58 -40 -71 -42 -30 -3 -33 11 -5 20 11 3 20 11 20 16 0 5 9
9 20 9 10 0 24 9 30 20 6 11 17 20 24 20 8 0 16 7 20 15 3 8 11 15 17 15 8 0
8 -4 -1 -15z m95 5 c-3 -5 -12 -10 -18 -10 -7 0 -6 4 3 10 19 12 23 12 15 0z
m295 6 c0 -2 -7 -7 -16 -10 -8 -3 -12 -2 -9 4 6 10 25 14 25 6z m-220 -46
c-11 -20 -30 -28 -30 -12 0 11 22 32 32 32 5 0 4 -9 -2 -20z m100 4 c0 -2 -7
-4 -15 -4 -8 0 -15 4 -15 10 0 5 7 7 15 4 8 -4 15 -8 15 -10z m160 -4 c0 -5
-8 -10 -17 -10 -15 0 -16 2 -3 10 19 12 20 12 20 0z m53 -45 c-3 -9 -8 -14
-10 -11 -3 3 -2 9 2 15 9 16 15 13 8 -4z m-478 -35 c-3 -5 -14 -10 -23 -10
-15 0 -15 2 -2 10 20 13 33 13 25 0z m505 6 c0 -3 -4 -8 -10 -11 -5 -3 -10 -1
-10 4 0 6 5 11 10 11 6 0 10 -2 10 -4z"/>
<path d="M3070 609 c0 -5 5 -7 10 -4 6 3 10 8 10 11 0 2 -4 4 -10 4 -5 0 -10
-5 -10 -11z"/>
<path d="M3145 611 c-3 -5 -1 -12 5 -16 5 -3 10 1 10 9 0 18 -6 21 -15 7z"/>
<path d="M3290 590 c-8 -5 -12 -11 -10 -14 3 -2 14 2 24 10 22 15 10 19 -14 4z"/>
<path d="M3140 440 c0 -5 4 -10 9 -10 6 0 13 5 16 10 3 6 -1 10 -9 10 -9 0
-16 -4 -16 -10z"/>
<path d="M2586 4762 c-3 -5 1 -15 9 -22 16 -14 20 -3 6 19 -5 8 -11 9 -15 3z"/>
<path d="M2836 4707 c3 -10 9 -15 12 -12 3 3 0 11 -7 18 -10 9 -11 8 -5 -6z"/>
<path d="M2736 4691 c-3 -5 8 -14 24 -20 36 -12 38 -9 6 13 -14 9 -27 12 -30
7z"/>
<path d="M2802 4634 c-19 -20 -4 -38 15 -18 9 9 12 19 7 24 -5 5 -15 2 -22 -6z"/>
<path d="M2765 4630 c-3 -5 -1 -10 4 -10 6 0 11 5 11 10 0 6 -2 10 -4 10 -3 0
-8 -4 -11 -10z"/>
<path d="M2930 4627 c0 -18 33 -48 57 -52 10 -1 17 -8 15 -15 -1 -6 2 -9 7 -6
5 4 12 2 16 -4 3 -5 -1 -10 -10 -10 -9 0 -14 -4 -11 -9 3 -5 16 -7 29 -5 l22
5 -22 -12 c-13 -7 -23 -18 -23 -25 0 -7 -3 -14 -7 -17 -5 -2 -3 -2 4 -1 9 2
23 -16 23 -31 0 -2 -15 1 -32 6 -41 11 -41 11 -33 -1 3 -5 -3 -10 -14 -10 -14
0 -21 -6 -21 -20 0 -19 9 -24 36 -21 6 1 16 -5 22 -12 9 -10 2 -13 -33 -12
-47 2 -60 -9 -25 -20 11 -3 20 -10 20 -15 0 -5 -7 -7 -15 -4 -8 4 -15 4 -15 0
0 -3 19 -11 43 -17 23 -6 36 -14 30 -16 -21 -8 -11 -75 22 -156 6 -13 4 -16
-9 -11 -9 4 -15 9 -12 12 3 2 1 13 -5 24 -6 11 -13 18 -15 15 -6 -5 16 -69 30
-86 26 -34 -2 -89 -38 -75 -10 4 -19 -3 -28 -20 -10 -23 -9 -29 6 -44 17 -16
18 -16 7 5 -15 30 -14 38 4 23 8 -7 15 -9 16 -4 1 5 9 -16 19 -46 l19 -55 0
39 c1 38 2 39 17 20 15 -19 16 -19 9 1 -4 11 -9 26 -13 34 -4 11 0 13 19 8 13
-4 32 -7 42 -7 9 0 17 -7 17 -15 0 -8 4 -15 10 -15 5 0 12 -11 16 -25 4 -14 9
-24 11 -21 3 3 -2 23 -11 46 -19 49 -19 47 -2 47 8 0 18 -21 26 -56 7 -30 19
-61 27 -69 8 -8 12 -20 9 -27 -5 -15 25 -15 37 0 4 6 13 3 22 -9 13 -17 15
-17 15 -4 0 9 5 20 12 24 7 4 8 3 4 -4 -4 -7 -2 -12 3 -12 6 0 11 9 11 20 0
16 -5 19 -22 17 -13 -2 -17 -2 -10 0 14 5 16 23 2 23 -5 0 -7 8 -4 18 5 16 5
16 -9 0 -18 -22 -31 -23 -23 -2 3 8 2 12 -4 9 -6 -3 -10 -12 -10 -20 0 -8 -7
-11 -18 -8 -19 5 -42 65 -42 112 0 16 -7 34 -15 41 -8 7 -15 18 -15 24 0 6 12
-2 25 -17 14 -15 25 -25 25 -21 0 3 6 1 14 -5 10 -8 16 -9 21 -1 3 5 -1 10 -9
10 -8 0 -18 5 -22 12 -5 8 -2 9 10 5 14 -6 16 -3 10 16 -3 12 -13 29 -21 38
-12 14 -12 17 2 23 9 3 13 2 10 -3 -3 -5 -1 -12 5 -16 15 -9 12 7 -9 51 -21
43 -19 58 4 28 11 -14 15 -15 14 -4 -4 41 3 70 22 94 16 20 24 24 34 16 10 -8
14 -7 18 2 3 7 6 3 6 -8 1 -12 8 -35 17 -50 15 -27 15 -27 10 -4 -3 14 -6 39
-6 55 0 20 -11 42 -32 64 -20 21 -26 32 -15 28 14 -5 16 -2 12 16 -3 12 -12
51 -19 87 -8 36 -15 57 -15 48 -1 -13 -10 -17 -41 -16 -40 0 -59 11 -40 23 12
7 -5 45 -21 45 -6 0 -8 -4 -5 -9 7 -11 -61 -5 -96 8 -14 5 -28 7 -31 4 -10 -9
-45 7 -52 24 -5 14 -3 14 15 -2 11 -10 23 -15 27 -12 8 8 -26 36 -44 37 -7 0
-13 -6 -13 -13z m194 -83 c3 -8 2 -12 -4 -9 -6 3 -10 10 -10 16 0 14 7 11 14
-7z m-144 -184 c0 -5 -2 -10 -4 -10 -3 0 -8 5 -11 10 -3 6 -1 10 4 10 6 0 11
-4 11 -10z m40 -122 c0 -6 -7 -5 -15 2 -8 7 -15 17 -15 22 0 6 7 5 15 -2 8 -7
15 -17 15 -22z"/>
<path d="M2825 4611 c-3 -6 5 -15 17 -22 31 -16 83 -61 81 -68 -1 -4 7 -7 18
-7 10 0 19 6 19 13 0 7 -6 13 -14 13 -7 0 -19 7 -26 15 -9 10 -9 15 -1 15 6 0
11 -4 11 -9 0 -5 10 -7 22 -3 21 5 21 5 -3 14 -13 5 -32 7 -41 4 -10 -2 -16 0
-13 4 8 12 -24 40 -45 40 -10 0 -21 -4 -25 -9z m62 -27 c-7 -7 -37 7 -37 17 0
6 9 5 21 -1 11 -7 19 -14 16 -16z"/>
<path d="M3035 4610 c3 -4 16 -10 30 -12 13 -3 22 -2 20 2 -3 4 -16 10 -30 12
-13 3 -22 2 -20 -2z"/>
<path d="M2780 4575 c0 -15 11 -19 39 -16 7 2 10 -2 7 -8 -9 -13 42 -51 60
-44 21 8 17 21 -8 29 -13 3 -31 15 -41 25 -10 11 -24 16 -34 12 -11 -4 -14 -3
-9 5 4 7 2 12 -3 12 -6 0 -11 -7 -11 -15z"/>
<path d="M3170 4580 c0 -5 5 -10 10 -10 6 0 10 5 10 10 0 6 -4 10 -10 10 -5 0
-10 -4 -10 -10z"/>
<path d="M2640 4556 c0 -2 7 -7 16 -10 8 -3 12 -2 9 4 -6 10 -25 14 -25 6z"/>
<path d="M3264 4534 c2 -16 8 -47 14 -69 5 -22 13 -53 17 -70 6 -27 8 -28 15
-10 4 11 4 25 -1 31 -5 5 -15 39 -23 73 -16 68 -28 92 -22 45z"/>
<path d="M2796 4525 c10 -8 23 -15 28 -15 6 0 1 7 -10 15 -10 8 -23 15 -28 15
-6 0 -1 -7 10 -15z"/>
<path d="M2838 4453 c7 -3 16 -2 19 1 4 3 -2 6 -13 5 -11 0 -14 -3 -6 -6z"/>
<path d="M2890 4431 c0 -10 19 -25 25 -20 1 2 -3 10 -11 17 -8 7 -14 8 -14 3z"/>
<path d="M2950 4171 c0 -6 4 -13 10 -16 6 -3 7 1 4 9 -7 18 -14 21 -14 7z"/>
<path d="M2926 4127 c3 -10 9 -15 12 -12 3 3 0 11 -7 18 -10 9 -11 8 -5 -6z"/>
<path d="M2870 4116 c0 -2 7 -9 15 -16 9 -7 15 -8 15 -2 0 5 -7 12 -15 16 -8
3 -15 4 -15 2z"/>
<path d="M2947 4088 c7 -8 11 -17 9 -19 -3 -2 6 -9 19 -15 33 -16 23 9 -13 32
-20 13 -24 14 -15 2z"/>
<path d="M2804 4066 c0 -14 3 -23 5 -21 2 3 12 0 21 -5 15 -8 17 -6 13 10 -3
12 -13 25 -23 30 -15 8 -18 6 -16 -14z"/>
<path d="M2816 4008 c-3 -13 -4 -41 -3 -63 1 -24 -2 -39 -9 -38 -18 3 -10 -65
11 -89 11 -13 19 -31 17 -40 -2 -10 1 -18 7 -18 13 0 15 37 2 44 -5 3 -11 18
-13 33 -3 16 -9 37 -13 48 -7 18 -6 18 14 -2 11 -12 21 -29 21 -37 0 -8 5 -18
11 -22 12 -7 3 33 -11 51 -12 15 -30 123 -24 140 4 8 3 15 0 15 -3 0 -8 -10
-10 -22z"/>
<path d="M2540 3990 c6 -11 13 -20 16 -20 2 0 0 9 -6 20 -6 11 -13 20 -16 20
-2 0 0 -9 6 -20z"/>
<path d="M3171 3974 c1 -21 16 -47 21 -38 4 5 0 18 -8 29 -8 10 -14 15 -13 9z"/>
<path d="M3057 3964 c-8 -8 3 -34 14 -34 11 0 12 27 0 34 -4 3 -11 3 -14 0z"/>
<path d="M3235 3950 c3 -5 11 -10 16 -10 6 0 7 5 4 10 -3 6 -11 10 -16 10 -6
0 -7 -4 -4 -10z"/>
<path d="M2737 3875 c5 -48 9 -54 15 -20 3 14 0 33 -7 42 -11 14 -12 11 -8
-22z"/>
<path d="M2958 3871 c-3 -38 -2 -39 15 -24 11 10 14 20 8 26 -5 5 -7 16 -4 23
3 8 1 14 -5 14 -5 0 -12 -18 -14 -39z"/>
<path d="M3065 3874 c0 -14 8 -30 17 -35 13 -7 16 -5 15 9 0 9 -8 25 -17 34
-15 16 -16 15 -15 -8z"/>
<path d="M2610 3874 c0 -13 18 -39 24 -34 2 3 -2 14 -10 24 -8 11 -14 16 -14
10z"/>
<path d="M2707 3818 c8 -70 13 -74 13 -10 0 28 -4 53 -10 57 -5 3 -7 -15 -3
-47z"/>
<path d="M2901 3838 c-8 -13 -15 -39 -17 -58 -3 -35 -3 -35 11 -10 8 14 12 33
8 44 -3 12 -1 16 6 12 7 -4 11 1 11 13 0 26 -2 26 -19 -1z"/>
<path d="M2540 3841 c0 -6 4 -13 10 -16 6 -3 7 1 4 9 -7 18 -14 21 -14 7z"/>
<path d="M2762 3830 c0 -14 2 -19 5 -12 2 6 2 18 0 25 -3 6 -5 1 -5 -13z"/>
<path d="M2640 3815 c0 -8 4 -15 10 -15 5 0 7 7 4 15 -4 8 -8 15 -10 15 -2 0
-4 -7 -4 -15z"/>
<path d="M2788 3814 c-5 -4 -8 -16 -8 -28 0 -14 3 -17 11 -9 6 6 9 19 7 28 -1
9 -6 13 -10 9z"/>
<path d="M2120 3790 c0 -5 7 -10 16 -10 8 0 12 5 9 10 -3 6 -10 10 -16 10 -5
0 -9 -4 -9 -10z"/>
<path d="M3357 3752 c-26 -27 -40 -59 -15 -34 7 7 20 12 29 12 11 0 17 8 17
25 0 14 -1 25 -2 25 -1 0 -14 -13 -29 -28z"/>
<path d="M2934 3762 c-6 -4 -14 -16 -18 -27 -5 -15 -9 -16 -15 -6 -6 9 -10 6
-13 -12 -4 -21 -2 -24 12 -15 9 6 23 23 33 39 17 31 17 32 1 21z"/>
<path d="M3325 3760 c-3 -5 -2 -10 4 -10 5 0 13 5 16 10 3 6 2 10 -4 10 -5 0
-13 -4 -16 -10z"/>
<path d="M2120 3739 c0 -5 5 -7 10 -4 6 3 10 8 10 11 0 2 -4 4 -10 4 -5 0 -10
-5 -10 -11z"/>
<path d="M2763 3728 c-2 -18 0 -20 7 -8 12 18 13 30 2 30 -4 0 -9 -10 -9 -22z"/>
<path d="M2835 3740 c-3 -5 -1 -10 4 -10 6 0 11 5 11 10 0 6 -2 10 -4 10 -3 0
-8 -4 -11 -10z"/>
<path d="M2802 3720 c-18 -29 -15 -38 4 -12 9 13 14 25 12 27 -2 2 -9 -5 -16
-15z"/>
<path d="M2686 3713 c-6 -14 -5 -15 5 -6 7 7 10 15 7 18 -3 3 -9 -2 -12 -12z"/>
<path d="M2849 3713 c-13 -16 -12 -17 4 -4 16 13 21 21 13 21 -2 0 -10 -8 -17
-17z"/>
<path d="M3206 3708 c-17 -24 -20 -38 -8 -38 8 0 34 52 28 57 -2 3 -11 -6 -20
-19z"/>
<path d="M2132 3695 c0 -16 3 -48 6 -70 l6 -40 6 50 c4 28 4 52 0 55 -4 3 -10
12 -13 20 -3 8 -5 2 -5 -15z"/>
<path d="M2565 3679 c-4 -6 -5 -12 -2 -15 2 -3 7 2 10 11 7 17 1 20 -8 4z"/>
<path d="M2819 3673 c-13 -16 -12 -17 4 -4 16 13 21 21 13 21 -2 0 -10 -8 -17
-17z"/>
<path d="M2839 3663 c-13 -16 -12 -17 4 -4 16 13 21 21 13 21 -2 0 -10 -8 -17
-17z"/>
<path d="M3160 3667 c-8 -7 -22 -21 -30 -32 -8 -11 0 -7 18 9 29 27 37 37 30
36 -2 0 -10 -6 -18 -13z"/>
<path d="M2550 3629 c0 -5 5 -7 10 -4 6 3 10 8 10 11 0 2 -4 4 -10 4 -5 0 -10
-5 -10 -11z"/>
<path d="M2904 3595 c-10 -8 -14 -14 -9 -15 15 0 40 18 34 24 -3 3 -14 -1 -25
-9z"/>
<path d="M1750 3591 c0 -9 144 -217 163 -236 7 -7 8 -6 3 2 -4 7 -3 20 2 29 8
14 11 11 20 -15 6 -17 16 -31 21 -31 16 0 13 10 -14 59 -33 57 -25 65 9 9 31
-51 34 -44 6 12 -24 47 -71 102 -112 132 l-30 21 7 -24 c4 -13 24 -55 46 -93
22 -38 38 -71 35 -73 -6 -6 -64 89 -86 144 -14 31 -31 55 -46 62 -13 6 -24 7
-24 2z"/>
<path d="M3110 3579 c0 -5 5 -7 10 -4 6 3 10 8 10 11 0 2 -4 4 -10 4 -5 0 -10
-5 -10 -11z"/>
<path d="M2686 3571 c-3 -4 6 -6 19 -3 14 2 25 6 25 8 0 8 -39 4 -44 -5z"/>
<path d="M2415 3560 c-3 -5 -1 -10 4 -10 6 0 11 5 11 10 0 6 -2 10 -4 10 -3 0
-8 -4 -11 -10z"/>
<path d="M2910 3560 c-9 -6 -10 -10 -3 -10 6 0 15 5 18 10 8 12 4 12 -15 0z"/>
<path d="M2574 3528 l-19 -23 23 19 c21 18 27 26 19 26 -2 0 -12 -10 -23 -22z"/>
<path d="M2320 3532 c0 -6 -6 -9 -14 -6 -8 3 -17 1 -21 -5 -3 -7 2 -11 14 -11
21 0 37 17 27 27 -3 4 -6 1 -6 -5z"/>
<path d="M2500 3536 c0 -2 9 -6 20 -9 11 -3 18 -1 14 4 -5 9 -34 13 -34 5z"/>
<path d="M2468 3514 c-10 -17 26 -42 47 -33 19 7 19 8 -2 8 -12 1 -26 8 -31
17 -5 9 -12 13 -14 8z"/>
<path d="M2377 3496 c-4 -10 -1 -13 8 -9 8 3 12 9 9 14 -7 12 -11 11 -17 -5z"/>
<path d="M1940 3484 c0 -5 7 -18 15 -28 12 -16 15 -17 15 -4 0 8 -7 21 -15 28
-8 7 -15 9 -15 4z"/>
<path d="M2245 3470 c-3 -5 -1 -10 4 -10 6 0 11 5 11 10 0 6 -2 10 -4 10 -3 0
-8 -4 -11 -10z"/>
<path d="M2280 3474 c0 -1 10 -8 23 -16 19 -13 24 -13 39 2 16 15 15 16 -22
15 -22 0 -40 -1 -40 -1z"/>
<path d="M2460 3466 c0 -2 7 -7 16 -10 8 -3 12 -2 9 4 -6 10 -25 14 -25 6z"/>
<path d="M2345 3440 c-3 -5 -3 -14 0 -20 7 -12 55 -9 55 3 0 5 -12 6 -27 2
-23 -5 -25 -4 -14 9 8 10 9 16 3 16 -6 0 -14 -4 -17 -10z"/>
<path d="M2600 3434 c-14 -7 -21 -14 -16 -14 5 0 3 -7 -4 -15 -8 -9 -9 -15 -2
-15 6 0 18 10 27 23 10 13 19 17 22 11 5 -14 43 -6 43 8 0 6 -7 8 -15 4 -8 -3
-15 -1 -15 4 0 13 -9 11 -40 -6z"/>
<path d="M2685 3440 c-3 -5 -1 -10 4 -10 6 0 11 5 11 10 0 6 -2 10 -4 10 -3 0
-8 -4 -11 -10z"/>
<path d="M2153 3403 c-7 -14 -10 -30 -6 -36 4 -6 1 -7 -7 -2 -10 6 -12 3 -8
-13 4 -12 2 -20 -3 -17 -4 3 -11 -4 -13 -17 -8 -37 -12 -126 -5 -122 3 2 4 -8
1 -21 -2 -14 -7 -23 -11 -20 -4 2 -8 -15 -8 -38 0 -23 -3 -54 -7 -69 -5 -21
-3 -28 9 -28 22 0 19 -7 -25 -60 -22 -26 -40 -51 -40 -54 0 -16 26 -3 56 28
18 19 39 34 46 33 43 -1 58 4 58 22 0 11 5 23 12 27 8 5 9 0 5 -15 -4 -18 -3
-20 9 -10 8 6 12 20 9 30 -4 12 1 23 14 31 19 12 19 13 -10 30 -43 27 -69 75
-69 131 0 68 24 113 81 150 27 18 49 38 49 45 0 18 -5 15 -47 -20 l-38 -33 19
30 19 30 -21 -19 c-12 -10 -24 -27 -27 -37 -4 -11 -11 -19 -16 -19 -17 0 -9
28 17 59 14 17 21 31 15 31 -5 0 -13 -5 -16 -10 -5 -7 -11 -8 -19 -1 -8 7 -15
2 -23 -16z"/>
<path d="M2546 3405 c-11 -8 -15 -15 -9 -15 6 0 16 7 23 15 16 19 11 19 -14 0z"/>
<path d="M2630 3350 c0 -11 4 -20 9 -20 5 0 7 9 4 20 -3 11 -7 20 -9 20 -2 0
-4 -9 -4 -20z"/>
<path d="M2254 3339 c-10 -13 -13 -19 -5 -14 11 6 13 4 6 -11 -15 -37 -24
-117 -15 -134 16 -30 40 -44 52 -32 29 29 26 168 -4 198 -12 13 -17 12 -34 -7z
m42 -167 c-13 -12 -17 8 -9 44 l8 39 3 -39 c2 -21 1 -41 -2 -44z"/>
<path d="M2436 3253 c-6 -14 -5 -15 5 -6 7 7 10 15 7 18 -3 3 -9 -2 -12 -12z"/>
<path d="M2212 3235 c0 -16 2 -22 5 -12 2 9 2 23 0 30 -3 6 -5 -1 -5 -18z"/>
<path d="M1830 3206 c0 -2 11 -11 25 -20 14 -9 25 -13 25 -8 0 5 -11 14 -25
20 -14 6 -25 10 -25 8z"/>
<path d="M2051 3124 c0 -11 3 -14 6 -6 3 7 2 16 -1 19 -3 4 -6 -2 -5 -13z"/>
<path d="M2370 2980 c0 -5 7 -10 15 -10 8 0 15 5 15 10 0 6 -7 10 -15 10 -8 0
-15 -4 -15 -10z"/>
<path d="M2029 2943 c-13 -16 -12 -17 4 -4 9 7 17 15 17 17 0 8 -8 3 -21 -13z"/>
<path d="M2349 2940 c-8 -6 -8 -9 1 -15 7 -4 18 -1 26 7 13 13 13 15 0 15 -8
0 -20 -4 -27 -7z"/>
<path d="M2329 2883 c-13 -16 -12 -17 4 -4 16 13 21 21 13 21 -2 0 -10 -8 -17
-17z"/>
<path d="M2236 2831 c-3 -5 1 -11 9 -14 9 -4 12 -1 8 9 -6 16 -10 17 -17 5z"/>
<path d="M2293 2823 c-18 -7 -16 -23 2 -23 8 0 15 7 15 15 0 8 -1 15 -2 14 -2
0 -9 -3 -15 -6z"/>
<path d="M2245 2750 c-3 -6 1 -7 9 -4 18 7 21 14 7 14 -6 0 -13 -4 -16 -10z"/>
<path d="M2195 2720 c3 -5 11 -10 16 -10 6 0 7 5 4 10 -3 6 -11 10 -16 10 -6
0 -7 -4 -4 -10z"/>
<path d="M2207 2686 c-4 -10 -1 -13 8 -9 8 3 12 9 9 14 -7 12 -11 11 -17 -5z"/>
<path d="M2148 2683 c7 -3 16 -2 19 1 4 3 -2 6 -13 5 -11 0 -14 -3 -6 -6z"/>
<path d="M2120 2644 c-24 -13 -24 -14 -4 -14 12 0 24 7 28 15 3 8 4 15 3 14
-1 -1 -13 -7 -27 -15z"/>
<path d="M2180 2643 c0 -15 -2 -16 -10 -3 -6 9 -10 10 -10 3 0 -6 -3 -20 -6
-30 -4 -13 -3 -15 4 -4 5 7 18 11 28 7 11 -3 36 0 57 8 l37 13 -26 12 c-20 9
-30 9 -40 0 -10 -8 -14 -8 -14 0 0 6 -4 11 -10 11 -5 0 -10 -8 -10 -17z"/>
<path d="M2081 2524 c0 -11 3 -14 6 -6 3 7 2 16 -1 19 -3 4 -6 -2 -5 -13z"/>
<path d="M1714 2522 c3 -5 -1 -13 -10 -16 -9 -4 -14 -9 -11 -12 3 -4 0 -13 -8
-21 -21 -20 -19 -28 13 -41 l27 -11 -35 2 c-33 2 -35 0 -38 -33 -2 -27 5 -45
30 -78 l33 -43 8 38 c4 21 19 69 34 107 30 80 38 122 20 108 -21 -16 -47 -22
-44 -10 1 6 -4 13 -12 16 -8 2 -11 0 -7 -6z"/>
<path d="M2036 2514 c-4 -10 -1 -14 6 -12 15 5 23 28 10 28 -5 0 -13 -7 -16
-16z"/>
<path d="M2045 2401 c-7 -22 -60 -27 -83 -8 -9 7 -11 6 -6 -7 5 -12 14 -16 31
-13 16 3 28 -2 38 -17 12 -16 15 -17 15 -4 0 9 5 18 10 20 13 4 22 48 10 48
-5 0 -11 -9 -15 -19z"/>
<path d="M2072 2350 c0 -14 2 -19 5 -12 2 6 2 18 0 25 -3 6 -5 1 -5 -13z"/>
<path d="M2094 2293 c-5 -17 -3 -28 4 -31 7 -2 12 -11 12 -20 0 -10 10 -23 21
-30 21 -14 21 -13 14 35 -11 72 -38 97 -51 46z"/>
<path d="M1650 2306 c0 -2 8 -10 18 -17 15 -13 16 -12 3 4 -13 16 -21 21 -21
13z"/>
<path d="M2060 2295 c0 -8 2 -15 4 -15 2 0 6 7 10 15 3 8 1 15 -4 15 -6 0 -10
-7 -10 -15z"/>
<path d="M1998 2289 c6 -7 12 -21 12 -32 0 -16 2 -17 15 -3 17 16 20 36 6 36
-5 0 -18 3 -28 6 -15 6 -16 4 -5 -7z"/>
<path d="M1706 2248 c10 -14 21 -24 23 -22 3 3 -6 15 -18 27 l-24 22 19 -27z"/>
<path d="M1877 2259 c7 -7 15 -10 18 -7 3 3 -2 9 -12 12 -14 6 -15 5 -6 -5z"/>
<path d="M1965 2260 c3 -5 11 -10 16 -10 6 0 7 5 4 10 -3 6 -11 10 -16 10 -6
0 -7 -4 -4 -10z"/>
<path d="M2090 2200 c0 -5 5 -10 10 -10 6 0 10 5 10 10 0 6 -4 10 -10 10 -5 0
-10 -4 -10 -10z"/>
<path d="M2183 2199 c9 -5 17 -17 17 -26 0 -9 3 -14 6 -10 11 11 -7 47 -24 47
-16 -1 -15 -2 1 -11z"/>
<path d="M1990 2190 c0 -5 5 -10 11 -10 5 0 7 5 4 10 -3 6 -8 10 -11 10 -2 0
-4 -4 -4 -10z"/>
<path d="M2071 2164 c0 -11 3 -14 6 -6 3 7 2 16 -1 19 -3 4 -6 -2 -5 -13z"/>
<path d="M2160 2119 c0 -6 -9 -9 -20 -6 -11 3 -20 1 -20 -4 0 -5 9 -9 19 -9
21 0 34 -28 33 -72 0 -16 4 -28 9 -28 5 0 9 -7 9 -16 0 -11 -5 -14 -16 -10
-13 5 -14 1 -9 -27 8 -35 21 -54 31 -44 4 3 -1 18 -10 31 -16 25 -15 26 9 32
17 4 23 10 17 18 -5 6 -15 29 -21 51 -7 22 -15 47 -18 55 -4 8 -5 21 -4 28 1
6 -1 12 -4 12 -3 0 -5 -5 -5 -11z"/>
<path d="M2191 2104 c0 -11 3 -14 6 -6 3 7 2 16 -1 19 -3 4 -6 -2 -5 -13z"/>
<path d="M1850 2080 c0 -5 5 -10 11 -10 5 0 7 5 4 10 -3 6 -8 10 -11 10 -2 0
-4 -4 -4 -10z"/>
<path d="M2136 2082 c-6 -9 12 -82 19 -82 3 0 4 18 3 40 -1 40 -11 59 -22 42z"/>
<path d="M1669 2063 c-13 -16 -12 -17 4 -4 9 7 17 15 17 17 0 8 -8 3 -21 -13z"/>
<path d="M2031 2064 c0 -11 3 -14 6 -6 3 7 2 16 -1 19 -3 4 -6 -2 -5 -13z"/>
<path d="M2062 2060 c0 -14 2 -19 5 -12 2 6 2 18 0 25 -3 6 -5 1 -5 -13z"/>
<path d="M2110 2044 c0 -10 5 -26 10 -34 8 -11 9 -7 4 15 -8 37 -14 45 -14 19z"/>
<path d="M1698 2013 c-27 -19 -48 -38 -48 -43 0 -4 -19 -32 -42 -61 l-43 -54
81 72 c93 83 107 99 102 112 -1 5 -24 -6 -50 -26z"/>
<path d="M3165 2024 c-17 -13 -18 -16 -5 -24 8 -5 21 -10 28 -10 13 0 17 16 5
23 -5 2 -3 3 3 1 6 -1 17 2 25 7 9 5 9 9 2 9 -6 0 -17 2 -25 5 -7 2 -22 -2
-33 -11z"/>
<path d="M2051 2014 c0 -11 3 -14 6 -6 3 7 2 16 -1 19 -3 4 -6 -2 -5 -13z"/>
<path d="M3260 2000 c-8 -5 -11 -12 -8 -16 10 -9 38 3 38 16 0 12 -10 13 -30
0z"/>
<path d="M1751 1969 c-13 -17 -21 -33 -18 -35 6 -6 47 45 47 57 0 14 -5 11
-29 -22z"/>
<path d="M2740 1986 c0 -2 7 -7 16 -10 8 -3 12 -2 9 4 -6 10 -25 14 -25 6z"/>
<path d="M3155 1980 c-3 -5 -1 -10 4 -10 6 0 11 5 11 10 0 6 -2 10 -4 10 -3 0
-8 -4 -11 -10z"/>
<path d="M2055 1970 c3 -5 8 -10 11 -10 2 0 4 5 4 10 0 6 -5 10 -11 10 -5 0
-7 -4 -4 -10z"/>
<path d="M2805 1970 c-4 -6 7 -10 24 -10 17 0 31 5 31 10 0 6 -11 10 -24 10
-14 0 -28 -4 -31 -10z"/>
<path d="M2956 1947 c3 -10 9 -15 12 -12 3 3 0 11 -7 18 -10 9 -11 8 -5 -6z"/>
<path d="M2822 1934 c-7 -8 -8 -14 -3 -14 10 0 25 19 20 25 -2 1 -10 -3 -17
-11z"/>
<path d="M2205 1930 c3 -5 8 -10 11 -10 2 0 4 5 4 10 0 6 -5 10 -11 10 -5 0
-7 -4 -4 -10z"/>
<path d="M2730 1928 c13 -15 40 -19 40 -6 0 6 -6 8 -14 5 -7 -3 -19 -1 -25 4
-8 6 -8 5 -1 -3z"/>
<path d="M3055 1930 c-3 -5 -1 -10 4 -10 6 0 11 5 11 10 0 6 -2 10 -4 10 -3 0
-8 -4 -11 -10z"/>
<path d="M2253 1898 c6 -20 15 -34 19 -32 12 8 9 16 -11 44 l-19 24 11 -36z"/>
<path d="M1682 1888 c-7 -13 -19 -34 -28 -48 -9 -14 -3 -10 15 10 17 19 31 40
31 47 0 19 -5 16 -18 -9z"/>
<path d="M1840 1895 c-10 -53 -10 -60 1 -42 6 10 8 25 6 35 -3 9 -6 13 -7 7z"/>
<path d="M1840 1813 c-53 -139 -110 -306 -110 -326 0 -12 20 37 44 108 24 72
56 161 70 199 14 38 25 71 23 73 -2 2 -14 -23 -27 -54z"/>
<path d="M1945 1840 c-4 -12 -5 -24 -2 -27 3 -2 8 5 12 17 4 12 5 24 2 27 -3
2 -8 -5 -12 -17z"/>
<path d="M3185 1849 c-11 -17 -2 -18 19 -3 17 12 17 14 4 14 -9 0 -20 -5 -23
-11z"/>
<path d="M1983 1833 c3 -12 0 -24 -6 -26 -5 -1 -12 -39 -14 -83 -2 -43 -10
-126 -19 -184 -10 -75 -12 -118 -6 -150 l10 -45 1 47 c1 41 26 222 49 358 6
32 4 55 -5 75 -9 20 -12 23 -10 8z"/>
<path d="M2460 1846 c0 -2 8 -10 18 -17 15 -13 16 -12 3 4 -13 16 -21 21 -21
13z"/>
<path d="M2042 1741 l-2 -94 22 15 c31 20 42 42 34 63 -5 14 -9 16 -18 7 -7
-7 -17 -12 -22 -12 -6 1 -1 9 12 20 19 16 21 23 12 40 -6 11 -15 18 -20 15 -5
-3 -10 5 -12 17 -2 13 -5 -19 -6 -71z"/>
<path d="M3210 1780 c-9 -6 -10 -10 -3 -10 6 0 15 5 18 10 8 12 4 12 -15 0z"/>
<path d="M2107 1763 c-3 -5 -1 -17 4 -28 7 -17 8 -17 8 8 1 27 -4 34 -12 20z"/>
<path d="M2545 1728 c3 -16 1 -28 -5 -28 -6 0 -6 -9 0 -26 16 -41 10 -52 -7
-14 -14 31 -16 33 -24 15 -4 -11 -8 -15 -8 -8 -2 21 -21 66 -27 60 -3 -3 -1
-14 4 -24 6 -11 7 -25 2 -33 -6 -10 -10 -7 -16 14 -6 25 -8 26 -16 11 -8 -12
-3 -29 15 -63 29 -55 81 -216 75 -233 -2 -7 -15 23 -27 67 -13 43 -35 104 -48
134 l-24 55 -16 -28 c-18 -36 -27 -30 -13 8 11 29 7 55 -7 55 -4 0 -9 -19 -10
-42 -2 -23 -8 -47 -13 -52 -8 -8 -9 1 -4 31 3 23 3 55 -1 70 l-7 28 -14 -27
c-18 -34 -26 -36 -18 -4 3 13 1 27 -4 30 -5 3 -12 -4 -15 -16 -4 -13 11 -64
39 -132 107 -262 155 -389 170 -453 24 -103 21 -99 50 -72 22 21 23 25 10 35
-9 6 -16 15 -16 20 0 4 5 3 12 -4 17 -17 28 -15 28 7 0 10 16 39 35 64 40 52
43 64 18 70 -15 3 -13 6 8 16 14 7 26 18 27 24 4 28 10 62 12 65 2 1 3 5 4 10
1 4 5 13 9 20 5 7 3 12 -5 12 -7 0 -2 9 12 20 16 12 20 20 11 20 -11 0 -10 4
5 16 10 8 13 13 7 9 -16 -8 -17 7 -2 22 8 8 6 15 -4 24 -13 12 -13 16 0 32 15
16 14 17 -3 17 -11 0 -25 -5 -32 -12 -9 -9 -12 -9 -12 -1 0 7 5 15 10 18 16
10 12 25 -5 19 -12 -5 -14 -2 -8 12 4 12 -3 8 -21 -11 l-28 -30 17 29 c17 28
17 29 0 22 -13 -5 -16 -2 -11 10 5 14 4 15 -9 4 -18 -15 -20 0 -2 20 6 8 2 6
-10 -4 -27 -23 -29 -15 -6 22 l17 27 -22 -20 c-16 -13 -21 -26 -17 -42 3 -13
1 -23 -5 -23 -5 0 -10 11 -11 25 -1 14 -2 35 -2 48 -1 12 -4 24 -7 27 -4 3
-15 19 -24 35 l-17 30 6 -27z"/>
<path d="M1990 1600 c-32 -198 -36 -354 -12 -445 18 -65 20 -68 30 -44 23 57
35 223 28 393 -10 258 -17 271 -46 96z"/>
<path d="M3258 1713 c-29 -34 -30 -48 -2 -21 15 15 26 30 23 33 -3 3 -13 -3
-21 -12z"/>
<path d="M1621 1664 c-18 -25 -30 -48 -28 -50 2 -3 12 7 21 21 9 14 23 36 32
50 28 43 9 27 -25 -21z"/>
<path d="M2615 1689 c-4 -6 -5 -12 -2 -15 2 -3 7 2 10 11 7 17 1 20 -8 4z"/>
<path d="M3075 1630 c-3 -6 1 -7 9 -4 18 7 21 14 7 14 -6 0 -13 -4 -16 -10z"/>
<path d="M3286 1603 c2 -7 -3 -13 -10 -13 -7 0 -21 -9 -31 -20 -16 -18 -16
-20 -2 -20 10 0 17 5 17 10 0 6 11 15 25 20 14 5 25 14 25 20 0 6 -4 9 -9 6
-5 -4 -11 -3 -14 1 -2 5 -2 2 -1 -4z"/>
<path d="M3224 1518 c-11 -12 -14 -18 -7 -15 6 4 13 3 15 -3 2 -6 9 -1 15 9
18 28 -1 35 -23 9z"/>
<path d="M3380 1533 c-2 -7 -3 -17 -4 -23 0 -5 -10 -16 -21 -24 -18 -14 -18
-15 -2 -16 20 0 67 42 67 61 0 9 -3 9 -14 0 -11 -9 -15 -9 -19 1 -4 10 -6 10
-7 1z"/>
<path d="M3270 1500 c0 -5 -9 -19 -20 -30 -11 -11 -16 -20 -11 -20 15 0 41 30
41 46 0 8 -2 14 -5 14 -3 0 -5 -4 -5 -10z"/>
<path d="M3190 1423 c-21 -20 -22 -23 -5 -17 36 13 57 31 43 36 -7 3 -24 -6
-38 -19z"/>
<path d="M1716 1418 c-3 -13 -5 -34 -5 -48 1 -15 5 -7 10 19 9 47 6 68 -5 29z"/>
<path d="M3495 1400 c-3 -5 -1 -10 4 -10 6 0 11 5 11 10 0 6 -2 10 -4 10 -3 0
-8 -4 -11 -10z"/>
<path d="M3300 1376 c0 -2 7 -7 16 -10 8 -3 12 -2 9 4 -6 10 -25 14 -25 6z"/>
<path d="M3209 1323 c-13 -16 -12 -17 4 -4 9 7 17 15 17 17 0 8 -8 3 -21 -13z"/>
<path d="M3276 1311 c9 -10 44 -11 44 -1 0 5 -11 9 -25 8 -13 -1 -22 -4 -19
-7z"/>
<path d="M3270 1275 c-11 -13 -10 -14 4 -9 9 3 16 10 16 15 0 13 -6 11 -20 -6z"/>
<path d="M3120 1245 c-11 -13 -10 -14 4 -9 11 4 16 1 16 -10 0 -9 7 -16 15
-16 8 0 15 5 15 10 0 6 10 15 23 21 19 8 17 9 -10 5 -18 -3 -33 -1 -33 4 0 15
-16 12 -30 -5z"/>
<path d="M3065 1240 c-3 -5 -1 -10 4 -10 6 0 11 5 11 10 0 6 -2 10 -4 10 -3 0
-8 -4 -11 -10z"/>
<path d="M3370 1240 c0 -5 -7 -10 -15 -10 -8 0 -15 -4 -15 -10 0 -5 -8 -10
-17 -10 -13 0 -14 -3 -5 -8 9 -6 7 -14 -8 -30 -12 -12 -17 -22 -12 -22 12 0
37 30 46 54 3 10 12 16 20 13 16 -6 40 16 29 26 -10 10 -23 8 -23 -3z"/>
<path d="M3035 1210 c-3 -6 1 -7 9 -4 18 7 21 14 7 14 -6 0 -13 -4 -16 -10z"/>
<path d="M3241 1187 c-6 -8 -8 -17 -4 -20 12 -12 19 -7 19 13 0 24 0 24 -15 7z"/>
<path d="M3365 1160 c-19 -8 -19 -9 2 -9 12 -1 25 4 28 9 7 12 -2 12 -30 0z"/>
<path d="M3079 1087 c7 -7 14 -8 21 -1 6 6 2 10 -12 11 -16 2 -18 -1 -9 -10z"/>
<path d="M3035 1080 c-3 -5 1 -10 9 -10 9 0 16 5 16 10 0 6 -4 10 -9 10 -6 0
-13 -4 -16 -10z"/>
<path d="M3385 1060 c-4 -6 -11 -8 -16 -5 -14 9 -11 -1 5 -14 11 -9 15 -7 19
9 6 22 2 26 -8 10z"/>
<path d="M3435 1050 c-3 -5 -1 -10 4 -10 6 0 11 5 11 10 0 6 -2 10 -4 10 -3 0
-8 -4 -11 -10z"/>
<path d="M2920 1010 c0 -5 5 -10 10 -10 6 0 10 5 10 10 0 6 -4 10 -10 10 -5 0
-10 -4 -10 -10z"/>
<path d="M3110 1005 c0 -9 6 -12 15 -9 8 4 12 10 9 15 -8 14 -24 10 -24 -6z"/>
<path d="M3102 975 c4 -4 3 -14 -4 -22 -8 -11 -7 -12 6 -7 19 7 21 20 4 30 -7
4 -10 4 -6 -1z"/>
<path d="M3145 970 c3 -5 11 -10 16 -10 6 0 7 5 4 10 -3 6 -11 10 -16 10 -6 0
-7 -4 -4 -10z"/>
<path d="M3175 918 l-20 -20 25 7 c32 10 36 13 24 24 -5 5 -17 0 -29 -11z"/>
<path d="M3106 901 c-3 -5 5 -8 18 -7 13 0 22 4 19 9 -6 10 -31 9 -37 -2z"/>
<path d="M2848 893 c7 -3 16 -2 19 1 4 3 -2 6 -13 5 -11 0 -14 -3 -6 -6z"/>
<path d="M3050 890 c-9 -6 -10 -10 -3 -10 6 0 15 5 18 10 8 12 4 12 -15 0z"/>
<path d="M2876 877 c-16 -12 -14 -13 18 -9 20 2 33 8 30 13 -8 13 -27 11 -48
-4z"/>
<path d="M2988 853 c6 -2 10 -9 7 -14 -4 -5 2 -6 11 -2 13 5 16 3 11 -10 -3
-9 -3 -19 2 -21 11 -7 10 27 -2 42 -5 6 -17 12 -26 11 -10 0 -12 -2 -3 -6z"/>
<path d="M3048 843 c7 -3 16 -2 19 1 4 3 -2 6 -13 5 -11 0 -14 -3 -6 -6z"/>
<path d="M3140 840 c0 -5 5 -10 10 -10 6 0 10 5 10 10 0 6 -4 10 -10 10 -5 0
-10 -4 -10 -10z"/>
<path d="M3125 810 c-3 -5 -1 -10 4 -10 6 0 11 5 11 10 0 6 -2 10 -4 10 -3 0
-8 -4 -11 -10z"/>
<path d="M3050 795 c-9 -10 -9 -15 -1 -15 6 0 11 4 11 10 0 5 6 7 14 4 8 -3
17 -1 21 5 10 17 -31 13 -45 -4z"/>
<path d="M2966 792 c-3 -6 1 -13 10 -16 24 -9 34 -7 34 6 0 6 -3 8 -7 5 -3 -4
-12 -2 -19 4 -7 6 -14 6 -18 1z"/>
<path d="M2810 780 c8 -5 22 -9 30 -9 10 0 8 3 -5 9 -27 12 -43 12 -25 0z"/>
<path d="M3008 759 c-8 -6 1 -9 25 -9 20 0 37 2 37 4 0 9 -50 12 -62 5z"/>
<path d="M2748 753 c7 -3 16 -2 19 1 4 3 -2 6 -13 5 -11 0 -14 -3 -6 -6z"/>
<path d="M3088 753 c6 -2 18 -2 25 0 6 3 1 5 -13 5 -14 0 -19 -2 -12 -5z"/>
<path d="M2990 719 c0 -4 7 -9 15 -13 9 -3 15 0 15 8 0 7 -7 13 -15 13 -8 0
-15 -4 -15 -8z"/>
<path d="M2915 700 c-3 -6 1 -7 9 -4 18 7 21 14 7 14 -6 0 -13 -4 -16 -10z"/>
<path d="M2960 688 c0 -4 4 -8 9 -8 6 0 12 4 15 8 3 5 -1 9 -9 9 -8 0 -15 -4
-15 -9z"/>
<path d="M2885 640 c-16 -7 -17 -9 -3 -9 9 -1 20 4 23 9 7 11 7 11 -20 0z"/>
<path d="M2818 623 c7 -3 16 -2 19 1 4 3 -2 6 -13 5 -11 0 -14 -3 -6 -6z"/>
<path d="M2760 586 c0 -2 7 -7 16 -10 8 -3 12 -2 9 4 -6 10 -25 14 -25 6z"/>
<path d="M2665 530 c-3 -6 1 -7 9 -4 18 7 21 14 7 14 -6 0 -13 -4 -16 -10z"/>
<path d="M2768 503 c7 -3 16 -2 19 1 4 3 -2 6 -13 5 -11 0 -14 -3 -6 -6z"/>
<path d="M2870 490 c0 -5 7 -7 15 -4 8 4 15 8 15 10 0 2 -7 4 -15 4 -8 0 -15
-4 -15 -10z"/>
<path d="M2696 465 c-11 -8 -29 -15 -40 -15 -15 0 -17 -3 -8 -12 8 -8 15 -8
26 1 8 7 28 13 45 13 25 1 27 3 16 14 -16 17 -15 17 -39 -1z"/>
<path d="M2608 433 c7 -3 16 -2 19 1 4 3 -2 6 -13 5 -11 0 -14 -3 -6 -6z"/>
<path d="M2796 421 c-4 -5 3 -7 14 -4 23 6 26 13 6 13 -8 0 -17 -4 -20 -9z"/>
<path d="M2660 400 c-9 -6 -10 -10 -3 -10 6 0 15 5 18 10 8 12 4 12 -15 0z"/>
<path d="M2888 373 c7 -3 16 -2 19 1 4 3 -2 6 -13 5 -11 0 -14 -3 -6 -6z"/>
<path d="M2825 290 c-3 -5 1 -10 9 -10 9 0 16 5 16 10 0 6 -4 10 -9 10 -6 0
-13 -4 -16 -10z"/>
<path d="M2820 260 c8 -5 26 -10 40 -10 20 0 22 2 10 10 -8 5 -26 10 -40 10
-20 0 -22 -2 -10 -10z"/>
<path d="M2860 226 c0 -2 7 -7 16 -10 8 -3 12 -2 9 4 -6 10 -25 14 -25 6z"/>
<path d="M2815 190 c3 -5 8 -10 11 -10 2 0 4 5 4 10 0 6 -5 10 -11 10 -5 0 -7
-4 -4 -10z"/>
<path d="M2996 179 c-15 -11 -32 -19 -39 -16 -7 2 -21 1 -32 -4 -16 -6 -14 -8
13 -8 30 -1 32 -3 22 -21 -16 -30 -5 -25 35 17 49 50 50 70 1 32z"/>
<path d="M2715 100 c3 -5 10 -10 16 -10 5 0 9 5 9 10 0 6 -7 10 -16 10 -8 0
-12 -4 -9 -10z"/>
<path d="M2969 98 c-7 -26 -5 -38 6 -38 21 0 25 13 9 28 -8 7 -14 11 -15 10z"/>
</g>
</svg>
